<?xml version="1.0" standalone="no"?>
<!DOCTYPE svg PUBLIC "-//W3C//DTD SVG 20010904//EN"
 "http://www.w3.org/TR/2001/REC-SVG-20010904/DTD/svg10.dtd">
<svg version="1.0" xmlns="http://www.w3.org/2000/svg"
 width="2080.000000pt" height="2080.000000pt" viewBox="0 0 2080.000000 2080.000000"
 preserveAspectRatio="xMidYMid meet">
<metadata>
Created by potrace 1.11, written by Peter Selinger 2001-2013
</metadata>
<g transform="translate(0.000000,2080.000000) scale(0.100000,-0.100000)"
fill="#000000" stroke="none">
<path d="M9638 20739 c-10 -17 -18 -37 -18 -45 0 -8 -4 -14 -10 -14 -5 0 -10
-5 -10 -12 0 -11 -8 -30 -117 -258 -36 -74 -80 -169 -100 -210 -19 -41 -39
-82 -44 -90 -5 -8 -14 -25 -19 -38 -5 -13 -22 -49 -37 -80 -15 -31 -26 -60
-25 -64 1 -5 -3 -8 -8 -8 -6 0 -10 -9 -10 -20 0 -11 -4 -20 -10 -20 -5 0 -10
-6 -10 -14 0 -8 -18 -50 -39 -93 -21 -43 -60 -122 -85 -175 -25 -54 -66 -140
-90 -190 -104 -218 -146 -310 -146 -319 0 -5 -5 -9 -12 -9 -6 0 -8 -3 -5 -6 4
-4 0 -19 -8 -33 -16 -29 -65 -139 -65 -146 0 -2 -12 -30 -26 -62 -15 -32 -37
-82 -50 -111 -13 -29 -24 -55 -24 -57 0 -2 -12 -30 -26 -62 -23 -53 -39 -90
-64 -148 -4 -11 -19 -47 -31 -80 -13 -33 -30 -71 -39 -85 -8 -13 -14 -25 -13
-27 3 -3 -5 -27 -25 -73 -18 -40 -15 -33 -30 -87 -7 -23 -17 -45 -22 -48 -6
-3 -10 -12 -10 -19 0 -8 -8 -31 -17 -52 -9 -22 -17 -42 -17 -46 -1 -3 -4 -10
-8 -14 -5 -4 -8 -17 -8 -29 0 -11 -5 -26 -12 -33 -7 -7 -8 -12 -4 -12 5 0 4
-6 -1 -12 -6 -7 -16 -31 -23 -53 -7 -22 -17 -46 -23 -52 -5 -7 -7 -13 -3 -13
4 0 0 -13 -9 -30 -8 -16 -15 -32 -15 -35 -1 -3 -2 -10 -5 -17 -2 -7 -29 -92
-60 -188 -31 -96 -61 -183 -66 -193 -6 -11 -8 -21 -5 -24 3 -3 1 -14 -5 -25
-6 -11 -12 -27 -14 -36 -2 -9 -13 -48 -25 -87 -11 -38 -34 -122 -51 -185 -30
-112 -34 -127 -44 -171 -2 -12 -13 -58 -25 -103 -11 -44 -22 -99 -26 -121 -3
-22 -10 -47 -15 -56 -4 -9 -6 -18 -4 -21 2 -2 0 -20 -5 -39 -5 -19 -12 -47
-14 -64 -3 -16 -8 -41 -11 -55 -3 -14 -8 -43 -11 -65 -6 -43 -10 -67 -18 -101
-5 -24 -19 -123 -19 -141 0 -7 -3 -13 -6 -13 -3 0 -6 -17 -6 -37 -1 -35 -9
-114 -20 -189 -2 -17 -7 -67 -10 -110 -3 -43 -8 -104 -10 -134 -23 -296 -13
-843 20 -1075 2 -16 7 -57 10 -90 3 -33 8 -71 11 -85 11 -62 17 -108 18 -142
1 -21 4 -38 8 -38 4 0 6 -8 6 -17 -1 -10 2 -36 7 -58 4 -22 8 -49 10 -60 2
-11 15 -76 29 -145 15 -69 28 -134 30 -145 2 -11 11 -49 20 -85 9 -36 19 -76
22 -90 2 -14 7 -32 10 -40 7 -17 42 -145 49 -175 15 -67 131 -404 166 -482 10
-24 19 -47 19 -53 0 -6 4 -18 9 -28 5 -9 21 -46 36 -82 15 -36 39 -90 53 -120
67 -149 79 -176 81 -185 1 -5 10 -18 18 -27 9 -10 13 -18 8 -18 -4 0 -3 -6 3
-12 6 -7 36 -62 67 -122 31 -60 64 -122 74 -137 9 -15 37 -64 64 -108 26 -44
47 -85 47 -90 0 -4 6 -14 14 -20 7 -6 35 -47 62 -91 26 -44 52 -80 56 -80 4 0
8 -6 8 -13 0 -7 9 -23 20 -35 11 -12 20 -26 20 -32 0 -5 5 -10 10 -10 6 0 10
-6 10 -13 0 -7 9 -23 20 -35 11 -12 20 -26 20 -32 0 -5 3 -10 8 -10 4 0 21
-21 37 -45 17 -25 33 -45 38 -45 4 0 7 -5 7 -11 0 -6 13 -27 30 -47 41 -51 97
-122 118 -150 9 -12 24 -30 33 -40 8 -9 37 -44 65 -77 27 -33 54 -64 60 -70 6
-5 39 -44 75 -85 67 -78 434 -449 530 -535 31 -27 82 -72 114 -100 32 -27 66
-57 75 -65 14 -13 105 -89 138 -115 7 -5 26 -21 42 -35 55 -47 85 -71 165
-131 44 -34 91 -69 105 -80 14 -11 50 -37 80 -60 126 -92 174 -126 352 -246
93 -62 170 -113 173 -113 3 0 39 -22 80 -50 41 -27 78 -50 84 -50 5 0 11 -3
13 -7 3 -9 96 -73 104 -73 9 0 198 -131 264 -183 8 -7 35 -28 60 -47 76 -59
100 -81 225 -202 66 -65 136 -138 155 -163 19 -25 44 -56 55 -69 46 -54 55
-67 55 -76 0 -6 7 -13 15 -16 8 -4 12 -10 9 -15 -3 -5 -1 -9 3 -9 8 0 18 -13
76 -109 31 -52 127 -245 127 -256 0 -4 6 -21 14 -38 29 -68 81 -243 91 -311 3
-21 7 -41 9 -45 4 -6 11 -69 22 -191 10 -113 4 -346 -11 -421 -3 -13 -8 -46
-11 -74 -4 -27 -10 -58 -15 -67 -5 -9 -8 -21 -7 -25 8 -27 -104 -303 -131
-323 -4 -3 -18 -21 -31 -40 -28 -42 -101 -115 -151 -152 -43 -32 -149 -84
-187 -92 -106 -23 -138 -27 -212 -28 -70 0 -168 10 -181 18 -5 3 -21 7 -36 9
-90 12 -326 118 -456 204 -38 25 -76 51 -85 56 -25 15 -202 155 -241 189 -60
54 -183 170 -204 193 -11 12 -47 51 -81 86 -91 95 -154 163 -226 247 -36 41
-69 80 -75 86 -35 38 -142 159 -152 173 -10 13 -11 -49 -8 -304 5 -349 5 -787
0 -850 -23 -285 -29 -328 -72 -460 -43 -131 -125 -270 -194 -329 -121 -102
-201 -135 -350 -141 -162 -7 -331 51 -519 177 -79 53 -101 70 -192 154 -42 39
-125 135 -157 182 -13 20 -27 39 -31 42 -4 3 -9 12 -13 20 -4 8 -18 33 -32 55
-36 58 -109 208 -145 300 -35 87 -99 276 -103 303 -1 9 -6 23 -11 30 -4 7 -5
16 -2 19 3 3 2 11 -3 17 -5 6 -11 29 -14 51 -3 22 -10 69 -16 105 -6 36 -13
85 -16 110 -3 25 -8 68 -12 95 -3 28 -7 68 -9 90 -1 22 -3 40 -4 40 -9 0 -23
373 -22 575 1 185 8 415 12 415 1 0 4 32 6 70 4 89 10 159 18 210 3 22 8 67
11 99 3 33 7 71 10 85 8 49 18 136 19 168 1 18 3 33 6 33 3 0 7 15 8 33 1 18
5 44 7 57 3 14 8 43 10 65 3 22 15 90 27 150 11 61 22 119 23 130 1 11 3 20 4
20 2 0 4 18 6 40 4 34 3 37 -8 22 -7 -10 -21 -30 -33 -44 -27 -31 -78 -127
-102 -189 -10 -27 -22 -58 -27 -69 -4 -11 -9 -24 -11 -30 -19 -72 -49 -187
-65 -255 -32 -137 -37 -162 -45 -200 -3 -14 -9 -38 -14 -55 -8 -26 -35 -137
-45 -184 -2 -9 -8 -36 -15 -61 -12 -51 -19 -81 -35 -165 -3 -16 -14 -70 -25
-120 -10 -49 -21 -103 -24 -120 -3 -16 -8 -41 -11 -55 -7 -35 -36 -201 -40
-225 -1 -11 -6 -44 -10 -74 -3 -30 -8 -63 -11 -74 -2 -10 -6 -45 -10 -76 -3
-31 -8 -63 -9 -72 -2 -9 -6 -52 -10 -95 -4 -43 -9 -90 -11 -104 -23 -191 -23
-760 0 -955 3 -22 8 -62 11 -90 3 -27 8 -63 11 -80 3 -16 7 -48 10 -70 2 -22
6 -54 8 -71 2 -17 6 -39 10 -50 3 -10 8 -37 12 -59 3 -22 8 -43 10 -46 2 -4 7
-24 10 -45 3 -22 7 -43 8 -49 1 -5 4 -14 8 -20 3 -5 9 -26 12 -46 3 -20 10
-48 15 -63 6 -14 9 -26 6 -26 -2 0 3 -16 11 -35 8 -19 14 -38 15 -42 0 -20 13
-59 22 -70 5 -7 7 -13 4 -13 -10 0 72 -200 120 -294 42 -81 128 -225 159 -266
56 -72 140 -166 196 -219 80 -76 80 -76 223 -179 39 -27 180 -99 280 -142 31
-13 69 -24 78 -22 4 1 7 -3 7 -8 0 -6 6 -10 13 -9 6 1 19 0 27 -3 14 -5 68
-20 115 -32 72 -19 286 -26 322 -11 10 4 32 9 49 11 77 8 228 76 348 157 86
57 279 255 354 362 35 50 62 94 62 99 -1 5 3 12 8 15 18 11 128 251 115 251
-3 0 -1 6 5 13 6 6 10 14 11 17 0 5 9 35 19 60 3 8 4 19 3 23 -1 4 5 31 14 60
16 56 22 88 31 157 3 25 7 52 9 60 2 8 7 42 10 75 3 33 8 74 10 91 5 36 16
225 20 339 4 115 4 121 13 109 7 -11 113 -103 216 -189 27 -22 56 -47 66 -55
186 -160 474 -384 510 -398 8 -3 17 -9 20 -13 3 -4 32 -22 65 -39 33 -18 67
-39 75 -46 8 -7 20 -13 25 -14 6 -1 33 -12 60 -25 28 -12 93 -36 145 -53 86
-28 128 -38 240 -57 77 -14 374 -6 400 10 4 2 22 7 41 10 29 5 119 28 154 39
6 2 13 3 16 2 3 0 12 4 20 10 8 6 32 17 54 24 37 12 150 68 237 118 91 52 229
150 333 236 82 68 254 243 285 289 14 20 28 37 33 37 4 0 7 7 7 15 0 9 7 18
15 21 8 4 12 10 9 15 -3 5 -1 9 4 9 5 0 17 15 26 32 9 18 26 49 38 68 56 93
148 366 133 391 -3 4 -1 10 3 13 22 13 20 338 -2 451 -9 44 -18 91 -20 105 -5
29 -46 187 -70 270 -9 30 -18 62 -20 70 -13 48 -90 253 -126 335 -4 11 -14 35
-22 53 -7 17 -16 32 -20 32 -5 0 -7 3 -6 8 4 10 -65 150 -135 272 -54 94 -182
297 -197 310 -3 3 -21 28 -39 55 -19 28 -37 52 -40 55 -4 3 -28 34 -56 70 -27
36 -55 69 -62 73 -7 4 -13 12 -13 17 0 5 -12 22 -27 38 -16 16 -53 58 -83 92
-105 122 -329 339 -500 486 -25 22 -51 45 -58 52 -8 7 -30 25 -50 40 -21 15
-39 30 -42 33 -3 4 -32 28 -65 53 -105 80 -118 91 -131 103 -7 7 -16 13 -21
13 -4 0 -19 14 -33 32 -14 17 -31 37 -37 44 -7 7 -13 15 -13 18 0 3 -13 19
-30 34 -16 16 -30 32 -30 36 0 4 -6 13 -12 20 -7 7 -26 30 -43 52 -16 21 -39
48 -50 60 -11 12 -46 57 -79 98 -32 42 -63 76 -67 76 -5 0 -9 6 -9 14 0 8 -3
16 -8 18 -4 2 -36 39 -72 83 -35 44 -69 85 -75 91 -5 7 -22 27 -37 45 -63 79
-202 245 -217 260 -9 9 -30 34 -48 55 -18 22 -44 53 -58 69 -14 17 -42 50 -63
74 -20 24 -46 53 -57 65 -11 12 -40 46 -65 76 -24 30 -53 63 -64 73 -10 9 -16
17 -13 17 3 0 -9 15 -26 33 -49 52 -328 399 -412 512 -17 22 -34 45 -40 51
-13 13 -24 29 -138 189 -144 201 -247 352 -247 363 0 6 -4 12 -9 14 -8 3 -201
304 -201 313 0 2 -13 24 -30 48 -16 25 -30 50 -30 56 0 6 -4 11 -9 11 -5 0
-11 8 -14 18 -8 24 -50 96 -59 100 -5 2 -8 8 -8 14 0 5 -27 57 -59 116 -87
157 -223 431 -293 592 -9 19 -25 55 -36 80 -64 144 -174 426 -175 448 0 6 -4
12 -9 12 -4 0 -7 3 -6 8 1 4 -9 39 -22 77 -13 39 -25 72 -25 75 -1 3 -4 12 -8
20 -8 21 -78 245 -81 261 -4 23 -27 103 -33 119 -7 17 -9 24 -16 60 -3 14 -13
50 -21 82 -8 31 -18 69 -21 85 -8 40 -13 58 -15 58 -1 0 -3 11 -5 25 -1 14 -9
54 -18 90 -8 36 -18 83 -21 106 -4 22 -10 54 -15 70 -4 16 -7 39 -6 52 1 12
-1 22 -5 22 -3 0 -6 10 -7 23 0 12 -5 51 -11 87 -13 75 -21 129 -27 185 -3 22
-7 54 -9 70 -5 40 -18 178 -31 330 -25 315 -22 786 9 1125 2 25 7 82 11 128 3
45 8 92 11 105 2 12 7 46 10 76 3 30 7 62 9 70 3 14 13 103 20 171 2 14 4 25
5 25 2 0 6 26 13 90 3 22 10 69 16 105 6 36 13 83 15 105 3 22 10 64 16 93 5
29 9 56 9 60 -1 4 0 9 1 12 3 8 19 105 25 150 5 41 15 107 19 126 8 41 26 153
31 194 2 14 4 25 5 25 1 0 3 16 5 35 8 67 17 106 41 190 14 47 27 92 29 100 2
8 10 31 19 51 8 20 12 39 9 43 -4 3 -1 6 5 6 7 0 11 3 10 8 -2 8 18 72 40 122
9 19 17 41 18 49 3 18 71 180 90 213 8 15 15 31 16 35 1 17 45 121 69 165 5
10 9 25 9 33 0 8 5 15 12 15 6 0 9 3 6 6 -4 3 5 31 19 62 14 31 47 113 75 182
27 69 53 134 59 145 13 29 130 383 140 425 4 19 15 64 24 100 9 36 18 74 21
85 2 11 6 31 9 45 3 14 8 36 11 50 3 14 7 39 9 55 8 50 14 75 20 85 3 6 3 10
-2 10 -4 0 -16 -14 -25 -31z"/>
<path d="M6822 12934 c107 -111 208 -227 208 -238 0 -5 14 -24 45 -60 24 -28
55 -76 55 -86 0 -5 4 -10 9 -10 5 0 11 -8 14 -17 4 -10 18 -38 33 -63 50 -83
92 -168 87 -174 -4 -3 -1 -6 5 -6 7 0 12 -8 12 -18 0 -10 4 -22 9 -27 10 -12
61 -142 67 -170 2 -11 8 -31 14 -45 5 -14 11 -34 13 -45 2 -11 7 -27 10 -35 3
-8 13 -51 22 -95 9 -44 18 -87 20 -96 2 -9 6 -40 10 -70 3 -30 9 -67 11 -84 3
-16 7 -83 9 -147 2 -65 7 -123 11 -129 4 -7 3 -10 -2 -7 -5 4 -9 -27 -8 -71 0
-96 -9 -190 -31 -306 -9 -49 -19 -102 -21 -116 -4 -21 -38 -161 -47 -194 -11
-36 -21 -66 -37 -110 -21 -58 -31 -88 -32 -95 0 -3 -9 -22 -19 -42 -11 -21
-17 -38 -15 -38 3 0 -6 -25 -20 -56 -13 -30 -26 -63 -27 -72 -1 -9 -7 -24 -12
-32 -5 -8 -10 -19 -11 -25 -2 -11 -59 -154 -79 -200 -8 -16 -33 -79 -58 -140
-24 -60 -47 -119 -52 -130 -5 -11 -9 -22 -9 -25 -1 -3 -14 -34 -29 -70 -16
-36 -32 -74 -37 -85 -4 -11 -17 -41 -29 -67 -12 -26 -21 -50 -21 -53 0 -4 -9
-25 -19 -48 -24 -54 -172 -409 -175 -422 -2 -5 -13 -32 -24 -58 -12 -27 -25
-60 -28 -73 -3 -13 -10 -27 -15 -30 -5 -3 -9 -14 -9 -25 0 -10 -5 -19 -12 -19
-6 0 -9 -3 -6 -6 4 -3 -6 -36 -21 -72 -15 -37 -28 -69 -29 -72 -1 -8 -21 -63
-31 -85 -5 -11 -23 -58 -41 -105 -17 -47 -37 -101 -45 -120 -26 -66 -47 -129
-47 -137 0 -4 -5 -17 -11 -28 -6 -11 -12 -24 -13 -30 -1 -5 -8 -23 -14 -40 -7
-16 -14 -37 -15 -45 -1 -8 -19 -64 -39 -123 -20 -60 -38 -116 -40 -125 -1 -9
-6 -24 -9 -32 -8 -23 -48 -158 -52 -178 -2 -9 -4 -17 -5 -17 -1 0 -3 -7 -5
-15 -1 -8 -11 -44 -20 -80 -10 -36 -19 -72 -19 -80 -1 -9 -5 -20 -9 -26 -3 -6
-8 -26 -11 -45 -2 -19 -14 -73 -25 -121 -11 -47 -23 -99 -26 -115 -24 -129
-44 -248 -50 -288 -3 -23 -7 -50 -9 -60 -2 -11 -7 -49 -11 -85 -4 -36 -9 -76
-10 -90 -20 -159 -26 -573 -11 -740 4 -52 9 -111 10 -130 1 -19 4 -39 7 -45 3
-5 7 -28 8 -50 1 -22 7 -60 13 -85 5 -25 12 -56 14 -70 10 -51 13 -66 29 -130
3 -11 7 -29 9 -40 10 -42 65 -208 94 -281 58 -144 196 -409 214 -409 4 0 8 -4
8 -10 0 -16 105 -159 175 -239 56 -65 180 -186 245 -241 36 -30 67 -58 68 -62
2 -5 8 -8 13 -8 6 0 20 -9 32 -21 25 -23 194 -137 247 -165 19 -10 37 -22 40
-25 6 -8 275 -140 321 -157 19 -8 43 -18 54 -23 50 -22 155 -58 155 -52 0 3 6
1 13 -4 6 -6 30 -16 52 -22 22 -7 47 -15 55 -18 8 -3 20 -7 25 -8 6 -2 37 -11
70 -21 33 -10 62 -18 65 -19 20 -4 87 -19 95 -21 24 -7 81 -20 138 -30 10 -2
26 -5 35 -8 19 -6 46 -11 137 -26 33 -5 69 -12 81 -14 12 -2 45 -7 75 -11 30
-3 61 -8 69 -10 8 -2 40 -7 70 -10 30 -3 62 -8 70 -10 8 -2 38 -7 65 -10 103
-11 141 -16 163 -21 12 -2 44 -7 70 -9 26 -3 58 -8 72 -10 14 -3 48 -7 76 -10
28 -3 61 -8 74 -10 13 -3 42 -7 65 -10 22 -3 56 -8 75 -11 19 -3 49 -7 65 -9
17 -2 46 -6 65 -10 19 -3 60 -10 90 -15 30 -5 78 -12 105 -16 28 -3 53 -8 56
-10 4 -2 27 -6 50 -9 24 -3 51 -8 59 -10 8 -2 31 -7 50 -10 63 -10 223 -45
345 -76 66 -17 128 -31 138 -32 9 -1 17 -5 17 -9 0 -4 8 -8 18 -8 37 0 393
-121 473 -161 20 -10 39 -15 43 -12 3 4 6 1 6 -5 0 -7 3 -11 8 -10 14 3 62
-14 62 -23 0 -5 5 -9 11 -9 28 0 150 -68 204 -114 85 -72 260 -248 336 -336
35 -41 70 -81 77 -88 6 -7 12 -17 12 -21 0 -4 8 -16 18 -27 10 -10 31 -37 47
-59 17 -22 32 -42 35 -45 3 -3 10 -12 15 -21 6 -9 43 -64 83 -123 40 -59 76
-114 79 -124 4 -9 15 -26 25 -36 10 -11 18 -26 18 -33 0 -7 4 -13 8 -13 5 0
18 -19 31 -42 12 -24 30 -56 39 -73 10 -16 33 -57 52 -90 19 -33 43 -73 53
-90 9 -16 25 -46 35 -65 9 -19 19 -37 22 -40 3 -3 15 -23 26 -45 27 -51 81
-149 107 -195 11 -19 31 -55 45 -80 14 -25 50 -88 80 -140 30 -52 60 -104 66
-115 6 -11 21 -34 34 -52 12 -17 22 -33 22 -36 0 -9 153 -232 162 -235 4 -2 8
-8 8 -13 0 -9 49 -72 144 -184 68 -81 196 -209 196 -197 0 10 -35 86 -136 300
-29 62 -54 114 -54 117 -1 2 -16 35 -34 72 -19 38 -44 91 -56 118 -12 28 -41
88 -62 135 -68 143 -98 210 -98 215 0 3 -18 41 -39 84 -22 44 -37 82 -33 85 3
3 0 6 -6 6 -7 0 -11 3 -10 7 2 5 -19 58 -45 118 -71 160 -70 157 -132 310 -31
77 -61 149 -66 160 -4 11 -43 101 -84 200 -42 99 -93 214 -113 255 -20 41 -37
77 -37 80 0 3 -9 20 -19 38 -9 18 -36 68 -58 110 -23 42 -46 87 -52 99 -6 13
-14 23 -18 23 -5 0 -8 5 -8 10 0 15 -111 180 -188 280 -66 85 -248 273 -310
320 -18 14 -44 35 -57 48 -13 12 -27 22 -31 22 -3 0 -23 13 -43 28 -20 15 -48
34 -63 41 -16 8 -28 18 -28 23 0 4 -6 8 -13 8 -8 0 -27 6 -43 14 -58 28 -140
64 -174 76 -45 16 -69 25 -100 38 -22 10 -63 23 -82 28 -5 1 -9 2 -10 4 -2 1
-10 3 -18 5 -8 1 -37 10 -63 19 -27 9 -60 17 -73 18 -13 1 -24 5 -24 9 0 3
-17 9 -37 12 -21 3 -47 8 -58 11 -11 3 -51 12 -90 21 -38 9 -77 17 -85 19 -8
2 -49 9 -90 16 -41 6 -86 13 -100 16 -14 2 -45 7 -70 10 -25 3 -47 8 -50 9 -3
2 -37 6 -75 10 -83 9 -120 13 -120 15 0 1 -18 3 -40 4 -81 6 -190 17 -205 21
-8 2 -44 7 -80 10 -36 3 -76 7 -90 10 -14 2 -45 7 -70 9 -25 3 -56 8 -70 11
-14 3 -38 7 -55 10 -25 4 -118 23 -190 40 -11 3 -32 7 -46 10 -15 3 -82 21
-148 40 -109 32 -144 43 -216 71 -11 4 -22 8 -25 8 -15 3 -201 83 -239 103
-24 13 -47 23 -52 23 -4 0 -46 22 -94 50 -48 27 -89 50 -91 50 -3 0 -17 8 -32
19 -15 10 -63 42 -107 71 -147 98 -288 219 -426 366 -54 58 -199 243 -207 264
-3 8 -11 21 -16 28 -33 40 -27 29 -86 137 -18 33 -36 65 -40 70 -5 6 -9 15
-11 20 -1 6 -19 47 -40 93 -36 77 -101 258 -130 362 -15 54 -15 55 -23 101 -3
20 -8 42 -10 50 -11 29 -18 77 -41 259 -5 40 -16 214 -16 248 0 6 1 23 1 37 0
14 0 33 0 43 0 9 0 26 0 37 -1 11 -1 25 -2 30 0 29 13 234 18 260 3 16 7 50 9
75 3 25 7 59 9 75 3 17 8 48 11 70 3 22 8 54 12 70 3 17 7 37 8 45 5 33 17 90
42 190 13 58 27 114 29 125 2 11 13 49 23 85 11 36 27 90 35 120 8 30 31 114
51 185 20 72 38 135 39 140 1 6 7 26 14 45 6 19 13 46 16 60 3 14 30 112 60
218 31 106 58 202 60 215 3 12 19 72 36 132 17 61 33 121 36 135 8 35 10 43
17 60 4 12 18 68 33 133 1 4 2 8 3 10 2 1 4 11 6 22 2 11 18 74 34 141 17 66
33 138 37 160 3 21 10 46 15 55 4 9 6 18 4 21 -3 2 0 20 5 39 6 19 13 50 16
69 3 19 7 37 9 40 2 3 6 24 9 46 6 37 8 50 20 103 3 11 8 41 12 68 5 26 9 50
9 53 1 3 5 30 9 60 5 30 10 64 13 75 2 11 6 34 8 50 2 17 6 44 8 60 3 17 9 59
12 95 4 36 9 68 11 71 2 3 6 44 9 90 3 46 8 102 11 124 16 144 22 573 11 765
-3 47 -6 85 -7 85 0 0 -3 32 -5 70 -2 39 -6 84 -8 100 -5 27 -10 67 -22 165
-12 94 -71 337 -88 358 -5 6 -7 12 -4 12 5 0 -27 94 -61 181 -30 76 -117 239
-174 326 -107 163 -230 298 -394 433 -46 37 -185 130 -249 165 l-70 38 37 -39z"/>
<path d="M13367 8913 c4 -10 9 -20 12 -23 3 -3 11 -12 16 -22 14 -23 113 -171
123 -183 4 -5 23 -35 42 -65 18 -30 55 -90 82 -133 26 -43 48 -83 48 -88 0 -5
5 -9 11 -9 5 0 8 -4 5 -9 -4 -5 -3 -11 1 -13 5 -1 21 -25 36 -53 40 -71 208
-413 211 -428 1 -7 9 -28 18 -47 85 -187 183 -540 203 -730 2 -25 7 -58 10
-75 15 -73 9 -404 -10 -540 -8 -57 -15 -100 -19 -121 -2 -12 -7 -38 -10 -59
-4 -20 -8 -41 -11 -45 -3 -4 -7 -25 -11 -46 -3 -22 -9 -43 -12 -49 -4 -5 -7
-12 -8 -15 -3 -17 -17 -67 -21 -80 -3 -8 -7 -22 -9 -30 -2 -8 -7 -23 -12 -35
-5 -11 -22 -54 -37 -95 -27 -73 -141 -313 -189 -397 -56 -99 -153 -250 -174
-272 -7 -7 -11 -15 -10 -17 7 -6 48 8 48 17 0 5 4 9 9 9 5 0 37 16 70 34 34
19 61 32 61 28 0 -4 4 -2 8 4 10 14 101 74 113 74 5 0 9 5 9 10 0 6 5 10 10
10 12 0 121 78 132 94 5 7 8 7 8 1 0 -5 6 -3 13 5 7 8 35 33 62 55 45 35 233
220 261 257 95 121 184 258 184 283 0 8 4 15 9 15 10 0 77 159 111 260 19 60
42 154 58 240 9 47 8 240 -1 315 -8 68 -9 73 -32 174 -9 40 -18 78 -19 85 -1
6 -4 16 -7 21 -4 6 -12 28 -18 50 -12 37 -43 125 -61 170 -38 94 -132 289
-142 293 -4 2 -8 8 -8 13 0 5 -18 38 -40 74 -22 36 -40 68 -40 70 0 3 -20 34
-45 69 -25 36 -45 70 -45 75 0 6 -3 11 -7 11 -5 0 -19 16 -32 35 -13 19 -32
44 -42 56 -11 12 -19 25 -19 28 0 3 -15 22 -33 42 -17 20 -50 58 -72 85 -46
56 -252 264 -306 309 -20 17 -51 41 -69 55 -19 14 -51 39 -72 57 -22 18 -57
42 -79 55 -21 12 -39 25 -39 30 0 4 -5 8 -10 8 -6 0 -27 11 -48 24 -20 12 -41
23 -46 24 -5 0 -12 4 -15 9 -3 4 -30 21 -58 36 -45 24 -52 25 -46 10z"/>
</g>
</svg>
