<?xml version="1.0" encoding="utf-8"?>
<!-- Generator: Adobe Illustrator 21.1.0, SVG Export Plug-In . SVG Version: 6.00 Build 0)  -->
<svg version="1.1" id="Layer_1" xmlns="http://www.w3.org/2000/svg" xmlns:xlink="http://www.w3.org/1999/xlink" x="0px" y="0px"
	 width="105.5px" height="105.5px" viewBox="0 0 105.5 105.5" style="enable-background:new 0 0 105.5 105.5;" xml:space="preserve"
	>
<style type="text/css">
	.st0{fill:#B1E9F1;}
	.st1{fill:#BBA9A3;}
	.st2{fill:#9F877E;}
	.st3{fill:#6C4C40;}
	.st4{fill:#FFFF00;}
	.st5{fill:#9C9C9C;}
	.st6{fill:#FFD500;}
	.st7{fill:#808080;}
	.st8{fill:#83BED6;}
	.st9{fill:#A4D8ED;}
	.st10{fill:#FFFFFF;}
	.st11{fill:#666666;}
	.st12{fill:#607C89;}
	.st13{fill:#445A64;}
	.st14{fill:#999999;}
	.st15{fill:#4D4D4D;}
	.st16{fill:#263238;}
	.st17{fill:#B3B3B3;}
	.st18{fill:#3E2622;}
	.st19{fill:none;}
	.st20{fill:#64D7F2;}
	.st21{fill:#324A5E;}
	.st22{fill:#FF7058;}
	.st23{fill:#E6E9EE;}
	.st24{fill:#FFEFC1;}
	.st25{fill:#FFF1C7;}
	.st26{fill:#FFDF81;}
	.st27{fill:#FFB54C;}
	.st28{fill:#FF9675;}
	.st29{fill:#FFC928;}
	.st30{fill:#FF9B7C;}
	.st31{fill:#FECBBC;}
	.st32{fill:#E9FFC2;}
	.st33{fill:#FDB62F;}
	.st34{fill:#6B962A;}
	.st35{fill:#88B337;}
	.st36{fill:#FFA83D;}
	.st37{fill:#FD7B2F;}
	.st38{fill:#DBDBDB;}
	.st39{fill:#F9F387;}
	.st40{fill:#736357;}
	.st41{fill:#534741;}
	.st42{fill:#E5D8C6;}
	.st43{fill:#D3C4B2;}
	.st44{fill:#EDE3D6;}
</style>
<g>
	<g>
		<circle class="st39" cx="52.75" cy="52.75" r="52.75"/>
	</g>
	<g>
		<path class="st40" d="M62.26,85.77l-8.49-3.77V67.49c0-0.56-0.45-1.01-1.01-1.01c-0.56,0-1.01,0.45-1.01,1.01v14.51l-8.49,3.77
			c-0.5,0.22-0.34,0.98,0.21,0.98h18.61C62.6,86.75,62.76,86,62.26,85.77z"/>
		<path class="st41" d="M62.05,86.75c0.55,0,0.71-0.75,0.21-0.98l-8.49-3.77V67.49c0-0.56-0.45-1.01-1.01-1.01v20.27H62.05z"/>
		<path class="st42" d="M68.03,32.71c0.44-0.98,0.08-2.14-0.83-2.71l-9.03-5.56c-0.4-0.25-0.67-0.66-0.72-1.13l-0.3-3.67
			c-0.1-1.22-1.12-2.16-2.34-2.16h-4.1c-1.22,0-2.24,0.94-2.34,2.16l-0.3,3.67c-0.06,0.47-0.32,0.88-0.72,1.13l-9.03,5.57
			c-0.92,0.57-1.28,1.73-0.84,2.71l5.22,11.79c1.65,3.72,0.83,8.01-1.24,11.51l0,0c-1.15,1.94-1.76,4.16-1.76,6.42v6.64
			c0,1.22,0.99,2.22,2.22,2.22h21.69c1.22,0,2.22-0.99,2.22-2.22v-6.64c0-2.26-0.61-4.47-1.76-6.42l0,0
			c-2.07-3.5-2.89-7.79-1.24-11.51L68.03,32.71z"/>
		<path class="st43" d="M68.16,32.32c0-0.02,0.01-0.04,0.01-0.05c0.01-0.05,0.02-0.1,0.03-0.15c0-0.02,0-0.03,0-0.05
			c0.01-0.05,0.01-0.11,0.01-0.16c0-0.01,0-0.02,0-0.03c0-0.06,0-0.11,0-0.17c0-0.01,0-0.01,0-0.01c0-0.07-0.01-0.13-0.02-0.19
			c0,0,0-0.01,0-0.01c-0.01-0.06-0.02-0.13-0.04-0.19l0,0c-0.13-0.52-0.46-0.99-0.95-1.3l-9.03-5.56c-0.4-0.25-0.67-0.66-0.72-1.13
			l-0.3-3.67c-0.1-1.22-1.12-2.16-2.34-2.16h-2.05v4.79c0,1.66,0.86,3.2,2.27,4.07L60.97,30c0.91,0.57,1.27,1.72,0.83,2.71
			l-5.22,11.8c-1.65,3.72-0.83,8.01,1.24,11.51l0,0c1.15,1.94,1.76,4.16,1.76,6.42v6.64c0,0,0,0.01,0,0.01
			c0,0.42-0.36,0.75-0.77,0.75H41.9c-1.22,0-2.22-0.99-2.22-2.22v1.46c0,1.22,0.99,2.22,2.22,2.22h15.47h6.22
			c0.84,0,1.57-0.47,1.95-1.16c0.17-0.31,0.27-0.67,0.27-1.06l0,0v-1.46v-5.18c0-2.26-0.61-4.47-1.76-6.42l0,0
			c-1.44-2.43-2.27-5.24-2.1-7.97c0.01-0.14,0.02-0.28,0.04-0.43c0-0.02,0-0.04,0.01-0.07c0.01-0.12,0.03-0.24,0.05-0.37
			c0-0.02,0.01-0.04,0.01-0.07c0.02-0.14,0.04-0.28,0.07-0.42l0,0c0.03-0.15,0.06-0.29,0.09-0.44c0-0.01,0-0.01,0.01-0.02
			c0.03-0.13,0.06-0.26,0.1-0.39c0.01-0.04,0.02-0.08,0.03-0.11c0.03-0.1,0.06-0.2,0.09-0.29c0.01-0.04,0.03-0.09,0.04-0.13
			c0.03-0.1,0.07-0.19,0.1-0.29c0.02-0.04,0.03-0.08,0.05-0.12c0.05-0.13,0.11-0.27,0.16-0.4l5.22-11.8
			c0.03-0.06,0.05-0.13,0.07-0.19c0.01-0.02,0.01-0.03,0.01-0.05C68.14,32.42,68.15,32.37,68.16,32.32z"/>
		<path class="st40" d="M57.24,20.88l-0.1-1.24c-0.1-1.22-1.12-2.16-2.34-2.16h-4.1c-1.22,0-2.24,0.94-2.34,2.16l-0.1,1.24H57.24z"
			/>
		<path class="st44" d="M53.94,38.22c-0.23-0.46-0.68-0.74-1.19-0.74h0c-0.51,0-0.97,0.28-1.19,0.74c-2.41,4.85-7.42,3.94-9.47,3.32
			c-0.11-0.03-0.49-0.21-0.89-0.38l1.12,2.54c1.11,0.27,2.12,0.4,3.03,0.4c4.03,0,6.3-2.3,7.39-3.91c0.59,0.87,1.49,1.91,2.81,2.7
			c1.35,0.81,2.88,1.21,4.57,1.21c0.96,0,1.98-0.13,3.05-0.4l0,0l1.12-2.53c-0.41,0.17-0.78,0.33-0.89,0.36
			C61.36,42.15,56.35,43.07,53.94,38.22z"/>
		<path class="st42" d="M57.83,41.69L57,43.57c0.97,0.35,2.01,0.53,3.12,0.53c0.96,0,1.98-0.13,3.05-0.4l0.5-1.14l0.62-1.39
			c-0.41,0.17-0.78,0.33-0.89,0.36C62.2,41.9,59.96,42.37,57.83,41.69z"/>
		<path class="st41" d="M54.8,17.48h-2.05v3.4h4.49l-0.1-1.24C57.04,18.42,56.02,17.48,54.8,17.48z"/>
	</g>
</g>
</svg>
