<?xml version="1.0" encoding="utf-8"?>
<!-- Generator: Adobe Illustrator 21.1.0, SVG Export Plug-In . SVG Version: 6.00 Build 0)  -->
<svg version="1.1" id="Layer_1" xmlns="http://www.w3.org/2000/svg" xmlns:xlink="http://www.w3.org/1999/xlink" x="0px" y="0px"
	 width="105.5px" height="105.5px" viewBox="0 0 105.5 105.5" style="enable-background:new 0 0 105.5 105.5;" xml:space="preserve"
	>
<style type="text/css">
	.st0{fill:#B1E9F1;}
	.st1{fill:#BBA9A3;}
	.st2{fill:#9F877E;}
	.st3{fill:#6C4C40;}
	.st4{fill:#FFFF00;}
	.st5{fill:#9C9C9C;}
	.st6{fill:#FFD500;}
	.st7{fill:#808080;}
	.st8{fill:#83BED6;}
	.st9{fill:#A4D8ED;}
	.st10{fill:#FFFFFF;}
	.st11{fill:#666666;}
	.st12{fill:#607C89;}
	.st13{fill:#445A64;}
	.st14{fill:#999999;}
	.st15{fill:#4D4D4D;}
	.st16{fill:#263238;}
	.st17{fill:#B3B3B3;}
	.st18{fill:#3E2622;}
	.st19{fill:none;}
	.st20{fill:#64D7F2;}
	.st21{fill:#324A5E;}
	.st22{fill:#FF7058;}
	.st23{fill:#E6E9EE;}
	.st24{fill:#FFEFC1;}
	.st25{fill:#FFF1C7;}
	.st26{fill:#FFDF81;}
	.st27{fill:#FFB54C;}
	.st28{fill:#FF9675;}
	.st29{fill:#FFC928;}
	.st30{fill:#FF9B7C;}
	.st31{fill:#FECBBC;}
	.st32{fill:#E9FFC2;}
	.st33{fill:#FDB62F;}
	.st34{fill:#6B962A;}
	.st35{fill:#88B337;}
	.st36{fill:#FFA83D;}
	.st37{fill:#FD7B2F;}
	.st38{fill:#DBDBDB;}
	.st39{fill:#F9F387;}
	.st40{fill:#736357;}
	.st41{fill:#534741;}
	.st42{fill:#E5D8C6;}
	.st43{fill:#D3C4B2;}
	.st44{fill:#EDE3D6;}
</style>
<g>
	<g>
		<circle class="st20" cx="52.75" cy="52.75" r="52.75"/>
	</g>
	<path class="st21" d="M54.11,72.3c-0.31-0.73-1.24-1.09-2.03-0.8c-0.9,0.31-1.78,0.61-2.66,0.86l-4.69-12.54l-2.95,0.92l4.65,12.37
		c-6.36,1.36-11.85,1-15.76,0.29l4.37-12.87l-2.99-0.84l-4.44,13.04c-2.09-0.57-3.29-1.13-3.35-1.15c-0.77-0.36-1.72-0.1-2.11,0.61
		c-0.4,0.69-0.1,1.57,0.65,1.93c0.36,0.17,6.07,2.83,14.86,2.83c4.48,0,9.78-0.69,15.55-2.76C54.03,73.87,54.42,73.03,54.11,72.3z"
		/>
	<path class="st22" d="M81.36,33.68l-3.22,7.85H61.08c-0.25-2.49-2.37-4.44-4.92-4.44H37.39c-1.44,0-2.8,0.63-3.75,1.72L23.32,50.8
		C21.81,52.54,21,54.76,21,57.06c0,5.3,4.29,9.59,9.59,9.59h18.96c1.44,0,2.83-0.63,3.77-1.74l6.64-7.81
		c0.75-0.9,1.17-2.03,1.17-3.2v-3.04h26.73v-9.31V33.7h-6.49V33.68z"/>
	<path class="st23" d="M37.99,40.88h-6.18l-8.54,9.9c-0.29,0.33-0.54,0.69-0.8,1.07h6.45c5.36,0,9.84-3.85,10.78-8.94
		C39.92,41.87,39.08,40.88,37.99,40.88z"/>
	<path class="st21" d="M68.3,28.57H23.05c-0.75,0-1.36,0.61-1.36,1.36c0,0.75,0.61,1.36,1.36,1.36h20.77v5.8h3.75v-5.8h20.77
		c0.75,0,1.36-0.61,1.36-1.36C69.66,29.18,69.06,28.57,68.3,28.57z"/>
	<path class="st23" d="M50.8,40.88h-5.3c-0.71,0-1.3,0.59-1.3,1.3v8.37c0,0.71,0.59,1.3,1.3,1.3h5.3c0.71,0,1.3-0.59,1.3-1.3v-8.37
		C52.12,41.47,51.54,40.88,50.8,40.88z"/>
</g>
</svg>
