<?xml version="1.0" encoding="utf-8"?>
<!-- Generator: Adobe Illustrator 21.1.0, SVG Export Plug-In . SVG Version: 6.00 Build 0)  -->
<svg version="1.1" id="Layer_1" xmlns="http://www.w3.org/2000/svg" xmlns:xlink="http://www.w3.org/1999/xlink" x="0px" y="0px"
	 width="106.25px" height="106px" viewBox="0 0 106.25 106" style="enable-background:new 0 0 106.25 106;" xml:space="preserve">
<style type="text/css">
	.st0{fill:#B1E9F1;}
	.st1{fill:#BBA9A3;}
	.st2{fill:#9F877E;}
	.st3{fill:#6C4C40;}
	.st4{fill:#FFFF00;}
	.st5{fill:#9C9C9C;}
	.st6{fill:#FFD500;}
	.st7{fill:#808080;}
	.st8{fill:#83BED6;}
	.st9{fill:#A4D8ED;}
	.st10{fill:#FFFFFF;}
	.st11{fill:#666666;}
	.st12{fill:#607C89;}
	.st13{fill:#445A64;}
	.st14{fill:#999999;}
	.st15{fill:#4D4D4D;}
	.st16{fill:#263238;}
	.st17{fill:#B3B3B3;}
	.st18{fill:#3E2622;}
	.st19{fill:none;}
	.st20{fill:#64D7F2;}
	.st21{fill:#324A5E;}
	.st22{fill:#FF7058;}
	.st23{fill:#E6E9EE;}
	.st24{fill:#FFEFC1;}
	.st25{fill:#FFF1C7;}
	.st26{fill:#FFDF81;}
	.st27{fill:#FFB54C;}
	.st28{fill:#FF9675;}
	.st29{fill:#FFC928;}
	.st30{fill:#FF9B7C;}
	.st31{fill:#FECBBC;}
	.st32{fill:#E9FFC2;}
	.st33{fill:#FDB62F;}
	.st34{fill:#6B962A;}
	.st35{fill:#88B337;}
	.st36{fill:#FFA83D;}
	.st37{fill:#FD7B2F;}
	.st38{fill:#DBDBDB;}
	.st39{fill:#F9F387;}
	.st40{fill:#736357;}
	.st41{fill:#534741;}
	.st42{fill:#E5D8C6;}
	.st43{fill:#D3C4B2;}
	.st44{fill:#EDE3D6;}
</style>
<g>
	<g>
		<polygon class="st0" points="51.92,19.86 51.92,19.04 49.8,19.86 		"/>
		<polygon class="st0" points="49.57,18.95 49.57,19.77 51.68,18.95 		"/>
		<polygon class="st0" points="51.92,16.7 51.92,15.86 49.77,16.7 		"/>
		<polygon class="st0" points="49.57,16.68 49.57,16.7 49.59,16.7 		"/>
		<polygon class="st0" points="51.65,16.84 49.57,16.84 49.57,17.41 50.19,17.41 		"/>
		<polygon class="st0" points="49.57,18.23 49.57,18.71 50.82,18.23 		"/>
		<polygon class="st0" points="49.57,25.28 49.57,26.09 51.66,25.28 		"/>
		<polygon class="st0" points="51.92,26.19 51.92,25.36 49.78,26.19 		"/>
		<polygon class="st0" points="49.57,20.01 49.57,20.82 51.68,20.01 		"/>
		<polygon class="st0" points="51.7,21.06 49.57,21.06 49.57,21.2 51.36,21.2 		"/>
		<polygon class="st0" points="49.57,24.27 49.57,25.05 51.61,24.27 		"/>
		<polygon class="st0" points="51.92,15.64 51.92,14.81 49.77,15.64 		"/>
		<polygon class="st0" points="49.57,12.7 49.57,13.42 51.44,12.7 		"/>
		<polygon class="st0" points="51.66,11.57 49.57,11.57 49.57,11.88 50.85,11.88 		"/>
		<polygon class="st0" points="49.57,11.41 49.57,11.42 49.59,11.42 		"/>
		<polygon class="st0" points="51.92,11.42 51.92,10.58 49.76,11.42 		"/>
		<polygon class="st0" points="49.57,10.51 49.57,11.31 51.64,10.51 		"/>
		<polygon class="st0" points="51.92,14.59 51.92,13.75 49.76,14.59 		"/>
		<polygon class="st0" points="49.57,26.34 49.57,27.14 51.66,26.34 		"/>
		<polygon class="st0" points="49.57,14.73 49.57,15.54 51.66,14.73 		"/>
		<polygon class="st0" points="49.57,15.79 49.57,16.59 51.65,15.79 		"/>
		<polygon class="st0" points="49.57,13.52 49.57,13.53 49.58,13.53 		"/>
		<polygon class="st0" points="49.57,13.68 49.57,14.48 51.64,13.68 		"/>
		<polygon class="st0" points="51.7,36.88 49.57,36.88 49.57,37.16 50.99,37.16 		"/>
		<polygon class="st0" points="51.69,33.72 49.57,33.72 49.57,33.78 51.52,33.78 		"/>
		<polygon class="st0" points="51.92,35.68 51.92,34.86 49.8,35.68 		"/>
		<polygon class="st0" points="49.57,34.77 49.57,35.59 51.69,34.77 		"/>
		<polygon class="st0" points="49.81,34.63 51.92,34.63 51.92,34.6 49.87,34.6 		"/>
		<polygon class="st0" points="49.57,35.83 49.57,36.65 51.68,35.83 		"/>
		<polygon class="st0" points="49.57,35.68 49.57,35.68 49.58,35.68 		"/>
		<polygon class="st0" points="49.57,10.35 49.57,10.37 49.6,10.37 		"/>
		<polygon class="st0" points="50.84,40.05 49.57,40.05 49.57,40.86 50.84,40.37 		"/>
		<polygon class="st0" points="51.92,27.24 51.92,26.41 49.78,27.24 		"/>
		<polygon class="st0" points="50.84,39.9 50.84,39.62 50.51,39.62 49.78,39.9 		"/>
		<polygon class="st0" points="51.92,36.74 51.92,35.92 49.8,36.74 		"/>
		<polygon class="st0" points="49.57,39.62 49.57,39.8 50.05,39.62 		"/>
		<polygon class="st0" points="49.57,28.45 49.57,29.26 51.68,28.45 		"/>
		<polygon class="st0" points="50.84,40.55 49.79,40.96 50.84,40.96 		"/>
		<polygon class="st0" points="49.57,30.1 49.57,30.31 50.13,30.1 		"/>
		<polygon class="st0" points="51.92,28.3 51.92,27.48 49.8,28.3 		"/>
		<polygon class="st0" points="49.57,27.39 49.57,28.21 51.68,27.39 		"/>
		<polygon class="st0" points="49.57,31.61 49.57,32.42 51.68,31.61 		"/>
		<polygon class="st0" points="49.57,32.67 49.57,33.48 51.67,32.67 		"/>
		<polygon class="st0" points="51.92,32.52 51.92,31.69 49.79,32.52 		"/>
		<polygon class="st0" points="51.92,33.57 51.92,32.75 49.79,33.57 		"/>
		<polygon class="st0" points="51.92,31.46 51.92,30.64 49.81,31.46 		"/>
		<polygon class="st0" points="49.57,30.55 49.57,31.37 51.69,30.55 		"/>
		<rect x="31.29" y="34.6" class="st0" width="10.82" height="3.07"/>
		<rect x="31.29" y="38.7" class="st0" width="10.82" height="0.1"/>
		<path class="st0" d="M41.07,1.7V1.55l0.27-0.06v0.15l2.15-0.58c0.34-0.06,0.69-0.12,1.03-0.17h5.05V0.75h0.28V0.33
			c-3.26,0.18-6.44,0.65-9.52,1.39c0.02-0.01,0.05-0.01,0.07-0.02H41.07z"/>
		<path class="st0" d="M51.82,6.15h0.37v1.43h3.96V5.23h1.52v2.35h1.14V8.4h-1.14v3.48h11.2v-0.31h1.52v0.31h1.9v0.82h-1.9v4.71h1.9
			v0.82h-1.9v5.22h1.63v0.82h-1.63v5.01h10.72c0-0.38,0-0.77,0-1.18c0-0.11-0.22-0.27-0.54-0.23v-1.15c0.53-0.1,1.54,0.27,1.54,0.89
			v0.38v1.29h0.24v-2.35h1.71v2.35h10.25v0.82h-1.33v3.68h1.15v0.82h-1.15v4.2h1.52v0.82h-1.52v5.01h2.66v-2.76h4.93v3.58h4.39
			c0.08,0.54,0.15,1.08,0.21,1.63C102.69,24.9,86.46,6.87,65.19,1.73H51.82V6.15z"/>
		<path class="st0" d="M51.54,0.75h0.28v0.58H63.4c0.04,0.01,0.08,0.02,0.12,0.03c-3.48-0.72-7.08-1.1-10.77-1.1
			c-0.58,0-1.15,0.01-1.73,0.03c0.17-0.01,0.34-0.01,0.52-0.02L51.54,0.75L51.54,0.75z"/>
		<rect x="57.67" y="24.27" class="st0" width="11.2" height="5.01"/>
		<path class="st0" d="M91.65,30.1h-7.59v3.57c0.69-0.34,2.02-0.89,3.99-1.22c2-0.34,3.09-1.2,3.61-1.76V30.1z"/>
		<rect x="31.29" y="30.1" class="st0" width="10.82" height="2.66"/>
		<rect x="57.67" y="18.23" class="st0" width="11.2" height="5.22"/>
		<rect x="57.67" y="12.7" class="st0" width="11.2" height="4.71"/>
		<rect x="31.29" y="24.27" class="st0" width="10.82" height="4.4"/>
		<path class="st0" d="M105.47,51.45c0,0.12,0.01,0.25,0.01,0.37c-0.01-0.38-0.02-0.75-0.04-1.12c0,0.09,0.01,0.19,0.01,0.28
			C105.46,51.14,105.47,51.3,105.47,51.45z"/>
		<polygon class="st0" points="57.68,39.62 57.68,44.63 62.68,44.63 63.59,39.62 		"/>
		<path class="st0" d="M105.17,47.1c0.09,0.81,0.16,1.63,0.22,2.45C105.33,48.73,105.26,47.91,105.17,47.1z"/>
		<polygon class="st0" points="91.65,44.63 91.65,39.62 86.5,39.62 87.26,44.63 		"/>
		<path class="st0" d="M64.36,1.53c0.28,0.06,0.55,0.13,0.82,0.19C64.91,1.66,64.64,1.6,64.36,1.53z"/>
		<path class="st0" d="M49.87,0.33c0.17-0.01,0.34-0.02,0.51-0.02C50.21,0.31,50.04,0.32,49.87,0.33z"/>
		<rect x="82.11" y="30.1" class="st0" width="0.24" height="3.68"/>
		<rect x="57.67" y="30.1" class="st0" width="11.2" height="3.68"/>
		<path class="st0" d="M85.68,35.91L85.68,35.91c0.01,0,0.01,0.01,0.01,0.02c0.05,0.07,0.09,0.14,0.13,0.21
			c0.01,0.02,0.02,0.04,0.03,0.06c0.03,0.07,0.06,0.13,0.09,0.2c0.01,0.02,0.01,0.03,0.02,0.05c0.03,0.08,0.06,0.16,0.08,0.25
			c0.01,0.02,0.01,0.05,0.02,0.07c0.02,0.09,0.04,0.17,0.05,0.26c0,0,0,0,0,0l0.27,1.77h5.27v-4.2h-7.59v0.47h0.1
			C84.81,35.08,85.33,35.41,85.68,35.91z"/>
		<path class="st0" d="M66.01,35.08h2.86V34.6h-11.2v4.2h6.06l0.32-1.77C64.25,35.97,64.94,35.08,66.01,35.08z"/>
		<path class="st0" d="M81.11,33.77c0-1.26,0-2.44,0-3.68H70.39v3.68h10.12c0.03,0,0.06-0.01,0.08-0.01L81.11,33.77L81.11,33.77z"/>
		<path class="st0" d="M105.45,50.68c-0.02-0.36-0.04-0.71-0.06-1.07C105.41,49.97,105.43,50.33,105.45,50.68L105.45,50.68z"/>
		<polygon class="st0" points="51.63,7.35 49.57,7.35 49.57,7.58 51.02,7.58 		"/>
		<polygon class="st0" points="51.92,16.92 50.65,17.41 51.92,17.41 		"/>
		<polygon class="st0" points="51.92,11.65 51.31,11.88 51.92,11.88 		"/>
		<polygon class="st0" points="49.57,7.19 49.57,7.2 49.59,7.2 		"/>
		<polygon class="st0" points="51.92,25.14 51.92,24.32 49.83,25.14 		"/>
		<polygon class="st0" points="51.92,20.09 49.8,20.92 51.92,20.92 		"/>
		<polygon class="st0" points="51.92,7.42 51.49,7.58 51.92,7.58 		"/>
		<polygon class="st0" points="51.92,9.31 51.92,8.48 49.76,9.31 		"/>
		<polygon class="st0" points="49.57,9.46 49.57,10.26 51.64,9.46 		"/>
		<polygon class="st0" points="49.57,8.41 49.57,9.21 51.65,8.41 		"/>
		<polygon class="st0" points="51.92,13.53 51.92,12.7 51.91,12.7 49.76,13.53 		"/>
		<polygon class="st0" points="51.92,21.16 51.82,21.2 51.92,21.2 		"/>
		<polygon class="st0" points="51.92,18.81 51.92,18.23 51.28,18.23 49.79,18.81 		"/>
		<polygon class="st0" points="51.79,44.63 51.92,44.63 51.92,44.36 51.79,44.41 		"/>
		<polygon class="st0" points="51.92,42.24 51.79,42.29 51.79,43.07 51.92,43.07 		"/>
		<polygon class="st0" points="51.92,41.19 51.79,41.24 51.79,42.01 51.92,42.01 		"/>
		<polygon class="st0" points="51.92,30.41 51.92,30.1 50.59,30.1 49.79,30.41 		"/>
		<polygon class="st0" points="51.92,10.37 51.92,9.53 49.76,10.37 		"/>
		<polygon class="st0" points="51.92,43.3 51.79,43.35 51.79,44.12 51.92,44.12 		"/>
		<polygon class="st0" points="51.92,28.53 49.98,29.28 51.92,29.28 		"/>
		<polygon class="st0" points="51.92,36.98 51.45,37.16 51.92,37.16 		"/>
		<polygon class="st0" points="51.92,40.13 51.79,40.18 51.79,40.96 51.92,40.96 		"/>
		<rect x="51.79" y="39.62" class="st0" width="0.13" height="0.29"/>
		<polygon class="st0" points="31.29,43.1 32.24,43.1 32.24,44.63 38.7,44.63 38.7,42.48 40.97,42.48 40.97,40.64 42.11,40.64 
			42.11,39.62 31.29,39.62 		"/>
		<polygon class="st0" points="16.54,33.35 16.76,33.07 16.1,32.92 		"/>
		<polygon class="st0" points="16.87,32.93 17.09,32.65 16.43,32.5 		"/>
		<polygon class="st0" points="15.89,34.2 16.11,33.91 15.45,33.76 		"/>
		<polygon class="st0" points="17.19,32.51 17.41,32.23 16.76,32.08 		"/>
		<polygon class="st0" points="15.56,34.62 15.78,34.33 15.12,34.18 		"/>
		<polygon class="st0" points="16.21,33.78 16.43,33.49 15.77,33.34 		"/>
		<polygon class="st0" points="18.5,30.82 18.71,30.55 18.07,30.4 		"/>
		<polygon class="st0" points="17.26,39.68 21.02,39.68 19.03,39.01 		"/>
		<polygon class="st0" points="17.85,31.67 18.06,31.39 17.42,31.24 		"/>
		<polygon class="st0" points="18.17,31.24 18.39,30.97 17.75,30.82 		"/>
		<path class="st0" d="M18.95,29.9c0.18,0,0.32-0.08,0.32-0.17c0-0.1-0.14-0.17-0.32-0.17c-0.18,0-0.32,0.08-0.32,0.17
			C18.63,29.82,18.77,29.9,18.95,29.9z"/>
		<polygon class="st0" points="17.52,32.09 17.74,31.81 17.09,31.66 		"/>
		<polygon class="st0" points="12.96,37.97 13.18,37.69 12.52,37.54 		"/>
		<polygon class="st0" points="12.63,38.4 12.85,38.11 12.19,37.96 		"/>
		<polygon class="st0" points="13.28,37.56 13.5,37.27 12.84,37.12 		"/>
		<path class="st0" d="M5.29,45.45v-4.61h2.92v-0.68h0.99v0.16h0.81v-0.37H7.66v0.28H7.18v-0.59h0.41v-1.33l4.04-0.02
			c0-0.01,0-0.02,0-0.02l0.65-0.84l0.65-0.84l0.65-0.84l0.65-0.84l0.65-0.84l1.63-2.1l1.3-1.68c0-0.01,0.01-0.01,0.02-0.01l0,0
			l0.74-0.39c-0.07-0.04-0.11-0.1-0.11-0.16c0-0.14,0.22-0.26,0.49-0.26c0.27,0,0.49,0.12,0.49,0.26c0,0.11-0.14,0.21-0.32,0.25
			v8.96l2.09,0.7c0.03,0.01,0.04,0.03,0.04,0.04h0.93v0.4h-6.23v-0.4h1.17c-0.02-0.02-0.01-0.04,0.02-0.06l1.82-0.69v-8.94
			c-0.07,0-0.13-0.01-0.19-0.02l0.15,0.55c0,0,0,0,0,0c0,0,0,0.01,0,0.01c0,0,0,0.01,0,0.01c0,0,0,0,0,0l-0.32,0.42h0c0,0,0,0,0,0
			l-0.32,0.42h0l-0.32,0.42l-0.33,0.42v0l-0.33,0.42l-0.33,0.42l-0.33,0.42l-0.33,0.42l-0.33,0.42c0,0,0,0,0,0l-0.33,0.42
			l-0.32,0.42h0l-0.32,0.42L14.67,36l-0.33,0.42c0,0,0,0,0,0l-0.33,0.42l-0.32,0.42l-0.33,0.42v0l-0.65,0.84
			c-0.01,0.01-0.02,0.02-0.03,0.02l-0.13,1.42h-0.81v0.37h0.58v-0.18h1.11v0.69h1.92v4.61h1.45c0.13-0.43,0.38-1.03,0.83-1.33
			c0.76-0.51,2.09-0.72,2.28-1.33c0.19-0.61,1.52-1.02,2.66-0.72c0.07,0.02,0.14,0.04,0.2,0.07l0.02-0.08l0.23,0.22
			c0.09,0.06,0.16,0.13,0.21,0.2l1.72,1.64l0.01-0.05l0.29-1l0.15,0.09V43.1h4.17v-3.48h-1.15V38.8h1.15v-4.2h-1.52v-0.82h1.52V30.1
			h-1.33v-0.82h1.33v-5.01h-1.33v-0.82h1.33V21.6h1.71v1.84h10.82v-5.22H40.6v-0.82h1.52V12.7h-1.71v-0.82h1.71V8.4h-0.19V7.58h0.19
			v-0.2h1.52v0.2h5.67V6.15h0.28v-4.3h-9.76C18.01,7.35,1.6,26.43,0.11,49.57c0.09-1.39,0.23-2.76,0.43-4.12H5.29z M33.67,7.89
			c2.99,0,5.42,2.42,5.42,5.41c0,2.99-2.42,5.41-5.42,5.41c-2.99,0-5.41-2.42-5.41-5.41C28.25,10.31,30.67,7.89,33.67,7.89z"/>
		<polygon class="st0" points="50.84,41.1 49.57,41.1 49.57,41.92 50.84,41.42 		"/>
		<polygon class="st0" points="13.61,37.14 13.83,36.85 13.17,36.7 		"/>
		<polygon class="st0" points="14.59,35.87 14.81,35.59 14.15,35.44 		"/>
		<polygon class="st0" points="14.91,35.45 15.13,35.17 14.48,35.02 		"/>
		<polygon class="st0" points="15.24,35.03 15.46,34.75 14.8,34.6 		"/>
		<polygon class="st0" points="14.26,36.3 14.48,36.01 13.82,35.86 		"/>
		<polygon class="st0" points="13.93,36.72 14.16,36.43 13.49,36.28 		"/>
		<rect x="9.21" y="40.74" class="st0" width="3.11" height="0.1"/>
		<polygon class="st0" points="14.31,35.04 14.09,35.33 14.76,35.48 		"/>
		<polygon class="st0" points="13.99,35.46 13.76,35.75 14.43,35.9 		"/>
		<polygon class="st0" points="13.66,35.89 13.44,36.17 14.1,36.32 		"/>
		<polygon class="st0" points="49.58,1.11 47.41,1.7 49.58,1.7 		"/>
		<polygon class="st0" points="14.64,34.63 14.42,34.91 15.07,35.06 		"/>
		<polygon class="st0" points="13.33,36.31 13.11,36.59 13.77,36.74 		"/>
		<polygon class="st0" points="13.01,36.73 12.79,37.01 13.44,37.16 		"/>
		<polygon class="st0" points="12.03,37.99 11.81,38.27 12.47,38.42 		"/>
		<path class="st0" d="M0.11,49.6c-0.02,0.36-0.04,0.73-0.06,1.09h0C0.07,50.32,0.09,49.96,0.11,49.6z"/>
		<polygon class="st0" points="18.6,30 18.03,30.3 18.72,30.45 		"/>
		<polygon class="st0" points="12.36,37.57 12.14,37.85 12.8,38 		"/>
		<polygon class="st0" points="12.68,37.15 12.46,37.43 13.12,37.58 		"/>
		<polygon class="st0" points="16.59,32.1 16.37,32.39 17.03,32.54 		"/>
		<polygon class="st0" points="16.92,31.68 16.69,31.97 17.36,32.12 		"/>
		<polygon class="st0" points="17.24,31.26 17.02,31.55 17.69,31.7 		"/>
		<polygon class="st0" points="17.9,30.42 17.67,30.71 18.35,30.86 		"/>
		<polygon class="st0" points="17.57,30.84 17.34,31.13 18.02,31.28 		"/>
		<path class="st0" d="M0.04,51.01c0-0.09,0.01-0.18,0.01-0.28c-0.02,0.36-0.03,0.72-0.04,1.09c0-0.13,0.01-0.25,0.01-0.38
			C0.03,51.3,0.04,51.15,0.04,51.01z"/>
		<polygon class="st0" points="16.26,32.52 16.04,32.81 16.71,32.96 		"/>
		<polygon class="st0" points="15.61,33.37 15.39,33.65 16.05,33.8 		"/>
		<polygon class="st0" points="15.29,33.79 15.07,34.07 15.72,34.22 		"/>
		<polygon class="st0" points="14.96,34.21 14.74,34.49 15.39,34.64 		"/>
		<polygon class="st0" points="15.94,32.95 15.72,33.23 16.37,33.38 		"/>
		<polygon class="st0" points="50.84,42.66 49.79,43.07 50.84,43.07 		"/>
		<rect x="52.19" y="12.7" class="st0" width="3.96" height="4.71"/>
		<rect x="53.12" y="8.4" class="st0" width="3.04" height="3.48"/>
		<rect x="52.19" y="18.23" class="st0" width="3.96" height="2.97"/>
		<rect x="43.63" y="34.6" class="st0" width="5.67" height="2.56"/>
		<polygon class="st0" points="48.38,42.48 48.38,44.63 49.3,44.63 49.3,39.62 43.63,39.62 43.63,40.64 45.15,40.64 45.15,42.48 		
			"/>
		<rect x="43.63" y="30.1" class="st0" width="5.67" height="3.68"/>
		<polygon class="st0" points="51.92,7.2 51.92,6.36 49.75,7.2 		"/>
		<rect x="52.19" y="39.62" class="st0" width="3.96" height="5.01"/>
		<rect x="52.19" y="24.27" class="st0" width="3.96" height="5.01"/>
		<rect x="52.19" y="30.1" class="st0" width="3.96" height="3.68"/>
		<rect x="52.19" y="34.6" class="st0" width="3.96" height="2.56"/>
		<polygon class="st0" points="50.84,44.59 50.84,44.27 49.57,44.27 49.57,44.63 50.75,44.63 		"/>
		<polygon class="st0" points="50.84,43.72 49.81,44.12 50.84,44.12 		"/>
		<polygon class="st0" points="50.84,43.21 49.57,43.21 49.57,44.03 50.84,43.54 		"/>
		<polygon class="st0" points="51.55,1.41 51.55,0.98 50.16,1.41 		"/>
		<polygon class="st0" points="50.84,42.16 49.57,42.16 49.57,42.97 50.84,42.48 		"/>
		<polygon class="st0" points="50.84,41.61 49.79,42.01 50.84,42.01 		"/>
		<rect x="43.63" y="24.27" class="st0" width="2.66" height="5.01"/>
		<rect x="47.05" y="24.27" class="st0" width="2.25" height="5.01"/>
		<rect x="43.63" y="18.23" class="st0" width="5.67" height="2.97"/>
		<rect x="47.62" y="8.4" class="st0" width="1.69" height="3.48"/>
		<rect x="43.63" y="12.7" class="st0" width="5.67" height="4.71"/>
		<rect x="43.63" y="8.4" class="st0" width="3.04" height="3.48"/>
		<polygon class="st0" points="51.55,4.72 51.55,4.29 50.15,4.72 		"/>
		<polygon class="st0" points="51.55,5.39 51.55,4.95 50.15,5.39 		"/>
		<polygon class="st0" points="49.85,4.87 49.85,5.31 51.27,4.87 		"/>
		<polygon class="st0" points="49.85,5.53 49.85,5.98 51.27,5.53 		"/>
		<polygon class="st0" points="47.02,1.04 47.02,1.65 49.27,1.04 		"/>
		<polygon class="st0" points="49.85,4.21 49.85,4.65 51.26,4.21 		"/>
		<polygon class="st0" points="46.75,1.7 46.75,1.1 44.53,1.7 		"/>
		<polygon class="st0" points="51.55,4.06 51.55,3.62 50.14,4.06 		"/>
		<polygon class="st0" points="44.18,1.04 44.18,1.64 46.39,1.04 		"/>
		<polygon class="st0" points="51.55,6.05 51.55,5.62 50.16,6.05 		"/>
		<polygon class="st0" points="49.57,7.09 51.63,6.3 49.57,6.3 		"/>
		<polygon class="st0" points="43.91,1.7 43.91,1.11 41.73,1.7 		"/>
		<polygon class="st0" points="49.85,0.89 49.85,1.34 51.27,0.89 		"/>
		<polygon class="st0" points="49.85,2.22 49.85,2.66 51.25,2.22 		"/>
		<polygon class="st0" points="49.85,2.88 49.85,3.32 51.27,2.88 		"/>
		<polygon class="st0" points="51.55,2.74 51.55,2.3 50.14,2.74 		"/>
		<polygon class="st0" points="51.55,2.07 51.55,1.63 50.13,2.07 		"/>
		<polygon class="st0" points="50.13,0.34 50.13,0.64 51.01,0.34 		"/>
		<polygon class="st0" points="49.85,1.56 49.85,1.85 49.85,1.99 51.24,1.56 		"/>
		<polygon class="st0" points="49.85,3.54 49.85,3.98 51.25,3.54 		"/>
		<polygon class="st0" points="51.27,0.7 51.27,0.43 50.46,0.7 		"/>
		<polygon class="st0" points="51.55,3.4 51.55,2.96 50.16,3.4 		"/>
	</g>
	<g>
		<path class="st1" d="M105.49,51.82c0-0.12-0.01-0.25-0.01-0.37c0.01,0.22,0.01,0.43,0.02,0.65H88.4l0.01,0.07
			c0.13,0.86-0.53,1.61-1.36,1.87c-0.19,0.06-0.39,0.09-0.59,0.09h-23.2h0c0,0,0,0,0,0c-0.07,0-0.14,0-0.21-0.01
			c-0.02,0-0.05-0.01-0.07-0.01c-0.05-0.01-0.09-0.01-0.14-0.02c-0.03-0.01-0.06-0.01-0.08-0.02c-0.04-0.01-0.08-0.02-0.13-0.04
			c-0.03-0.01-0.06-0.02-0.09-0.03c-0.04-0.01-0.08-0.03-0.12-0.05c-0.03-0.01-0.06-0.02-0.08-0.04c-0.04-0.02-0.08-0.04-0.11-0.06
			c-0.02-0.01-0.05-0.03-0.07-0.04c-0.04-0.02-0.08-0.05-0.12-0.08c-0.02-0.01-0.04-0.03-0.06-0.04c-0.06-0.04-0.11-0.09-0.16-0.14
			c0,0-0.01-0.01-0.01-0.01c-0.05-0.04-0.09-0.09-0.13-0.14c0,0-0.01-0.01-0.01-0.01l0,0c-0.28-0.34-0.43-0.76-0.35-1.21l0.01-0.07
			H51.26l4.44,1.1c0.3-0.25,0.69-0.4,1.11-0.4h1.23c0.82,0,1.51,0.56,1.71,1.32h28.68c0.68,0,1.28,0.4,1.63,1l0,0
			c0.01,0.02,0.02,0.03,0.02,0.05c0.03,0.06,0.06,0.11,0.09,0.17c0.01,0.02,0.02,0.05,0.03,0.07c0.03,0.08,0.06,0.16,0.08,0.25
			c0,0.02,0.01,0.03,0.01,0.05c0.02,0.07,0.03,0.15,0.05,0.23c0,0.03,0.01,0.05,0.01,0.08c0.01,0.09,0.02,0.19,0.02,0.28v0v0v2.43
			c0.02,0.07,0.02,0.15,0,0.23v1.17c0.09,0.11,0.17,0.21,0.25,0.32l0.61-0.22c0.18-0.07,0.38-0.05,0.49,0.11l0.3,0.48
			c0.1,0.16,0.03,0.35-0.11,0.49l-0.46,0.45c0.16,0.3,0.31,0.61,0.44,0.92l0.64-0.06c0.19-0.02,0.39,0.04,0.45,0.23l0.17,0.54
			c0.06,0.19-0.06,0.35-0.23,0.45l-0.56,0.32c0.08,0.33,0.14,0.66,0.19,1l0.64,0.1c0.19,0.03,0.36,0.14,0.38,0.33l0.03,0.57
			c0.01,0.19-0.14,0.32-0.33,0.38l-0.62,0.18c0,0.34-0.03,0.68-0.06,1.02l0.6,0.25c0.18,0.08,0.32,0.22,0.28,0.41l-0.11,0.56
			c-0.04,0.19-0.22,0.28-0.41,0.28l-0.64,0.02c-0.09,0.33-0.19,0.66-0.32,0.97l0.51,0.39c0.15,0.12,0.25,0.3,0.17,0.47l-0.24,0.51
			c-0.08,0.18-0.28,0.21-0.47,0.17l-0.63-0.14c-0.17,0.3-0.35,0.58-0.55,0.86l0.4,0.51c0.12,0.15,0.17,0.35,0.05,0.5l-0.36,0.44
			c-0.12,0.15-0.33,0.14-0.5,0.05l-0.57-0.3c-0.24,0.25-0.48,0.48-0.74,0.7l0.26,0.59c0.08,0.18,0.08,0.38-0.08,0.5l-0.46,0.33
			c-0.16,0.11-0.35,0.05-0.49-0.08l-0.48-0.43c-0.29,0.18-0.59,0.34-0.89,0.49l0.1,0.64c0.03,0.19-0.02,0.39-0.2,0.46l-0.53,0.21
			c-0.18,0.07-0.35-0.04-0.46-0.2l-0.36-0.53c-0.32,0.1-0.65,0.19-0.99,0.25l-0.06,0.64c-0.02,0.19-0.11,0.37-0.31,0.4l-0.56,0.07
			c-0.19,0.02-0.33-0.12-0.4-0.31l-0.22-0.61c-0.17,0.01-0.34,0.01-0.51,0.01c-0.17,0-0.34,0-0.51-0.01l-0.22,0.61
			c-0.07,0.18-0.2,0.33-0.4,0.31l-0.56-0.07c-0.19-0.02-0.29-0.2-0.31-0.4l-0.06-0.64c-0.34-0.07-0.67-0.15-0.99-0.25l-0.36,0.53
			c-0.11,0.16-0.28,0.27-0.46,0.2l-0.53-0.21c-0.18-0.07-0.23-0.27-0.2-0.46l0.1-0.64c-0.31-0.15-0.61-0.31-0.9-0.49l-0.48,0.43
			c-0.15,0.13-0.34,0.19-0.49,0.08l-0.46-0.33c-0.16-0.11-0.16-0.32-0.08-0.49l0.26-0.59c-0.26-0.22-0.51-0.45-0.74-0.7l-0.58,0.3
			c-0.17,0.09-0.37,0.1-0.5-0.05l-0.36-0.44c-0.12-0.15-0.07-0.34,0.05-0.5l0.4-0.51c-0.2-0.28-0.38-0.56-0.55-0.86l-0.63,0.14
			c-0.19,0.04-0.39,0.01-0.47-0.17l-0.24-0.51c-0.08-0.18,0.02-0.35,0.17-0.47l0.51-0.39c-0.12-0.32-0.23-0.64-0.32-0.97l-0.65-0.02
			c-0.19-0.01-0.38-0.09-0.41-0.28l-0.11-0.56c-0.04-0.19,0.1-0.34,0.28-0.41l0.59-0.25c-0.04-0.34-0.06-0.68-0.06-1.02l-0.62-0.18
			c-0.15-0.04-0.28-0.13-0.32-0.27H57.7l0.05,0.16c0.05,0.15-0.05,0.27-0.18,0.35l-0.44,0.26c0.06,0.26,0.11,0.52,0.15,0.79
			l0.5,0.08c0.15,0.02,0.29,0.11,0.3,0.26l0.03,0.45c0.01,0.15-0.11,0.25-0.26,0.3l-0.49,0.14c0,0.27-0.02,0.54-0.05,0.8l0.47,0.2
			c0.14,0.06,0.25,0.18,0.22,0.33l-0.08,0.44c-0.03,0.15-0.17,0.22-0.33,0.22l-0.51,0.01c-0.07,0.26-0.15,0.52-0.25,0.77l0.4,0.31
			c0.12,0.09,0.2,0.23,0.13,0.37l-0.19,0.4c-0.07,0.14-0.22,0.17-0.37,0.13l-0.49-0.11c-0.13,0.23-0.28,0.46-0.43,0.68l0.31,0.4
			c0.09,0.12,0.13,0.27,0.04,0.39l-0.28,0.34c-0.1,0.12-0.26,0.11-0.39,0.04l-0.45-0.23c-0.19,0.19-0.38,0.38-0.59,0.55l0.2,0.47
			c0.06,0.14,0.06,0.3-0.06,0.39l-0.36,0.26c-0.12,0.09-0.28,0.04-0.39-0.06l-0.38-0.34c-0.23,0.14-0.46,0.27-0.7,0.39l0.08,0.5
			c0.02,0.15-0.01,0.31-0.16,0.36l-0.41,0.16c-0.14,0.06-0.28-0.03-0.36-0.16l-0.28-0.42c-0.25,0.08-0.51,0.15-0.78,0.2l-0.05,0.51
			c-0.01,0.15-0.09,0.29-0.24,0.31l-0.44,0.06c-0.15,0.02-0.26-0.1-0.31-0.24L49.7,77c-0.13,0.01-0.27,0.01-0.41,0.01
			c-0.13,0-0.27,0-0.4-0.01l-0.17,0.48c-0.05,0.14-0.16,0.26-0.31,0.24l-0.44-0.06c-0.15-0.02-0.23-0.16-0.24-0.31l-0.04-0.5
			c-0.26-0.05-0.53-0.12-0.78-0.2l-0.28,0.42c-0.09,0.13-0.22,0.21-0.36,0.16l-0.41-0.16c-0.14-0.06-0.18-0.21-0.16-0.36l0.08-0.5
			c-0.24-0.12-0.48-0.25-0.7-0.39l-0.38,0.34c-0.11,0.1-0.27,0.15-0.39,0.06l-0.36-0.26c-0.12-0.09-0.12-0.25-0.06-0.39l0.2-0.47
			c-0.2-0.17-0.4-0.36-0.59-0.55l-0.45,0.23c-0.14,0.07-0.3,0.08-0.39-0.04l-0.28-0.34c-0.1-0.12-0.06-0.27,0.04-0.39l0.31-0.4
			c-0.15-0.22-0.3-0.44-0.43-0.68l-0.5,0.11c-0.15,0.03-0.31,0-0.37-0.13l-0.19-0.4c-0.07-0.14,0.01-0.28,0.13-0.37l0.4-0.31
			c-0.1-0.25-0.18-0.5-0.25-0.77L41,71.04c-0.15,0-0.3-0.07-0.33-0.22l-0.08-0.44c-0.03-0.15,0.08-0.27,0.22-0.33l0.47-0.2
			c-0.03-0.26-0.05-0.53-0.05-0.8l-0.49-0.14c-0.15-0.04-0.27-0.14-0.26-0.3l0.03-0.45c0.01-0.15,0.14-0.24,0.3-0.26l0.5-0.08
			c0.04-0.27,0.09-0.53,0.15-0.79l-0.44-0.26c-0.13-0.08-0.23-0.21-0.18-0.35l0.14-0.42c0.05-0.15,0.2-0.19,0.35-0.18l0.5,0.05
			c0.1-0.25,0.22-0.49,0.34-0.73l-0.36-0.36c-0.11-0.11-0.17-0.26-0.09-0.39l0.24-0.38c0.08-0.13,0.24-0.14,0.38-0.09l0.48,0.17
			c0.16-0.22,0.33-0.42,0.51-0.62l-0.26-0.44c-0.08-0.13-0.1-0.29,0.01-0.39l0.33-0.31c0.11-0.11,0.27-0.07,0.39,0.01l0.42,0.29
			c0.21-0.17,0.42-0.33,0.65-0.47l-0.15-0.49c-0.04-0.15-0.02-0.3,0.11-0.38l0.39-0.21c0.13-0.07,0.28-0.01,0.38,0.11l0.33,0.38
			c0.24-0.11,0.49-0.21,0.75-0.3l-0.02-0.51c-0.01-0.15,0.05-0.3,0.2-0.34l0.43-0.11c0.15-0.04,0.27,0.06,0.34,0.2l0.23,0.45
			c0.26-0.05,0.53-0.08,0.8-0.1l0.11-0.5c0.03-0.15,0.13-0.28,0.28-0.28h0.45c0.15,0,0.25,0.13,0.28,0.28l0.06,0.27l1.11-1.29
			l-1.48-1.14c-0.24-0.19-0.29-0.53-0.1-0.77l0.26-0.34l-5.43-4.54l-0.12,0.41l-2.85-0.9h-0.11l-6.19,2.85
			c-0.08,0.67-0.66,1.19-1.35,1.19h-1.06c-0.35,0-0.66-0.13-0.9-0.34c-0.67,0.32-1.45,0.52-2.37,0.55c-1.56,0.05-2.91-0.41-4.08-1.2
			l0,0c-0.02-0.01-0.04-0.03-0.07-0.05c-0.06-0.04-0.11-0.08-0.17-0.12c-0.06-0.05-0.13-0.1-0.19-0.14
			c-0.05-0.04-0.11-0.08-0.16-0.12c-0.1-0.08-0.2-0.16-0.29-0.25c-0.05-0.05-0.11-0.09-0.16-0.14c-0.06-0.05-0.12-0.11-0.17-0.16
			c-0.05-0.05-0.1-0.1-0.16-0.15c-0.06-0.06-0.13-0.13-0.19-0.19c-0.07-0.07-0.14-0.15-0.21-0.22c-0.06-0.07-0.12-0.14-0.19-0.2
			c-0.05-0.06-0.1-0.11-0.14-0.17c-0.05-0.06-0.1-0.12-0.16-0.19c-0.05-0.06-0.09-0.11-0.14-0.17c-0.08-0.1-0.15-0.19-0.23-0.29
			c-0.05-0.07-0.1-0.13-0.15-0.2c-0.05-0.07-0.1-0.14-0.16-0.21c-0.02-0.03-0.04-0.05-0.06-0.08H0.01c0-0.22,0.01-0.44,0.02-0.66
			c0,0.13-0.01,0.25-0.01,0.38C0.01,52.21,0,52.6,0,53c0,3.78,0.4,7.46,1.15,11.01c1.23-1.15,2.96-1.8,4.92-2.11l0,0l0.08-0.01
			c0.4-0.06,0.82-0.11,1.24-0.14l0.02,0v0c2.78-0.22,5.9,0.11,8.72,0.63c1.06,0.2,2.07,0.42,3.05,0.66v0l0.01,0.01
			c4.55,1.14,8.2,2.78,10.98,4.61l0,0l1.11,0.74l0,0.02c3.07,2.25,4.94,4.71,6,6.8c1.13,2.22,1.35,4.01,0.71,5.7
			c-0.63,1.69-2.12,3.28-3.58,4.39c-1.45,1.11-2.91,1.2-5.67,1.74l-13.83,2.71c9.59,9.87,22.99,16,37.83,16
			c29.13,0,52.75-23.62,52.75-52.75C105.5,52.61,105.49,52.21,105.49,51.82z M15.23,61.39c-0.78,0-1.4-0.58-1.4-1.3
			c0-0.11,0.02-0.22,0.04-0.32c-0.06,0.01-0.12,0.01-0.17,0.01h-0.01c-0.28,0.31-0.78,0.52-1.35,0.52c-0.54,0-1.03-0.19-1.31-0.48
			c-0.09,0.01-0.19,0.01-0.29,0.01c-0.93,0-1.69-0.4-1.69-0.88s0.76-0.88,1.69-0.88c0.32,0,0.61,0.05,0.87,0.12
			c0.22-0.08,0.47-0.12,0.73-0.12c0.18-0.54,0.72-0.94,1.37-0.94c0.79,0,1.43,0.59,1.43,1.33c0,0.12-0.02,0.23-0.05,0.34
			c0.05-0.01,0.1-0.01,0.15-0.01c0.78,0,1.4,0.58,1.4,1.3C16.63,60.81,16.01,61.39,15.23,61.39z M31.1,64.15
			c-0.21,0-0.41-0.04-0.6-0.12c-0.26,0.41-0.77,0.69-1.35,0.69c-0.85,0-1.53-0.59-1.53-1.31c0-0.11,0.02-0.23,0.05-0.33
			c-0.18,0.12-0.39,0.2-0.61,0.23c-0.18,0.14-0.4,0.22-0.64,0.22c-0.33,0-0.63-0.16-0.85-0.42c-0.29,0.14-0.62,0.21-0.96,0.21
			c-1.24,0-2.25-1-2.25-2.24c0-1.24,1.01-2.24,2.25-2.24c0.41,0,0.8,0.11,1.13,0.3c0.56-0.98,1.81-1.66,3.27-1.66
			c1.98,0,3.58,1.25,3.58,2.8c0,0.37-0.09,0.72-0.26,1.04c0.24,0.3,0.38,0.68,0.38,1.1C32.71,63.38,31.99,64.15,31.1,64.15z"/>
		<path class="st1" d="M5.42,76.31C4.89,75.23,4.39,74.13,3.93,73C4.39,74.13,4.89,75.23,5.42,76.31z"/>
		<path class="st1" d="M1.8,66.7c-0.24-0.88-0.45-1.77-0.64-2.68C1.35,64.92,1.56,65.81,1.8,66.7z"/>
		<path class="st1" d="M2.6,69.4c-0.28-0.84-0.53-1.7-0.76-2.56C2.07,67.7,2.33,68.56,2.6,69.4z"/>
		<path class="st1" d="M3.89,72.9c-0.34-0.83-0.66-1.67-0.95-2.52C3.23,71.23,3.55,72.07,3.89,72.9z"/>
		<path class="st1" d="M6.71,78.75c-0.44-0.79-0.86-1.58-1.26-2.39C5.84,77.17,6.27,77.97,6.71,78.75z"/>
		<path class="st1" d="M2.92,70.33c-0.1-0.28-0.19-0.56-0.28-0.84C2.72,69.77,2.82,70.05,2.92,70.33z"/>
		<path class="st1" d="M8.62,81.9c-0.67-1.01-1.3-2.05-1.89-3.11C7.32,79.85,7.96,80.89,8.62,81.9z"/>
		<path class="st1" d="M14.91,89.75c-0.84-0.87-1.66-1.77-2.44-2.69C13.25,87.98,14.07,88.88,14.91,89.75z"/>
		<path class="st1" d="M34.48,52.85l1.05-0.75h-0.72C34.72,52.35,34.61,52.6,34.48,52.85z"/>
		<path class="st1" d="M105.46,50.98c0-0.09-0.01-0.19-0.01-0.28c0-0.01,0-0.01,0-0.02l0,0h0
			C105.45,50.78,105.45,50.88,105.46,50.98z"/>
		<path class="st1" d="M0.06,50.68L0.06,50.68L0.06,50.68c0,0.02,0,0.03,0,0.05c0,0.09-0.01,0.18-0.01,0.28
			C0.05,50.9,0.05,50.79,0.06,50.68z"/>
		<path class="st1" d="M51.33,55.84l1.62,1.25l0.97-1.12l-5.89-2.17l2.55,2.13C50.76,55.7,51.1,55.66,51.33,55.84z"/>
		<path class="st1" d="M12.45,87.04c-1.37-1.62-2.64-3.33-3.81-5.11C9.81,83.71,11.08,85.41,12.45,87.04z"/>
	</g>
	<g>
		<path class="st2" d="M34.41,85.3c1.45-1.11,2.94-2.69,3.58-4.39c0.64-1.69,0.42-3.48-0.71-5.7c-1.06-2.09-2.93-4.55-6-6.8
			l-2.76,14.77l1.66-15.53c-2.79-1.83-6.43-3.47-10.98-4.61l1.39,0.58l-2,16.45l0.59-17.02c-0.98-0.24-1.99-0.47-3.05-0.66
			c-2.82-0.52-5.94-0.86-8.72-0.63L7.04,72.34L6.08,61.9c-1.97,0.31-3.69,0.96-4.92,2.11l0,0c0,0.01,0,0.01,0,0.02
			c0.19,0.9,0.41,1.79,0.64,2.67c0.01,0.05,0.03,0.1,0.04,0.14c0.23,0.86,0.49,1.71,0.76,2.56c0.01,0.03,0.02,0.06,0.03,0.09
			c0.09,0.28,0.19,0.56,0.28,0.84c0.01,0.02,0.01,0.03,0.02,0.05c0.3,0.85,0.62,1.69,0.95,2.52c0.01,0.03,0.03,0.07,0.04,0.1
			c0.46,1.12,0.96,2.23,1.49,3.31c0.01,0.02,0.01,0.03,0.02,0.04c0.4,0.81,0.82,1.61,1.26,2.39c0.01,0.01,0.01,0.03,0.02,0.04
			c0.6,1.06,1.23,2.1,1.89,3.11c0.01,0.01,0.01,0.02,0.02,0.03c1.17,1.78,2.44,3.48,3.81,5.11c0.01,0.01,0.01,0.01,0.02,0.02
			c0.78,0.92,1.6,1.82,2.44,2.69c0,0,0,0,0.01,0.01l0,0l13.83-2.71C31.51,86.5,32.96,86.41,34.41,85.3z"/>
		<path class="st2" d="M6.15,61.89l1.24-0.14C6.97,61.78,6.56,61.83,6.15,61.89z"/>
	</g>
	<g>
		<polygon class="st3" points="7.41,61.74 7.41,61.74 7.39,61.74 6.15,61.89 6.08,61.9 6.08,61.9 7.04,72.34 		"/>
		<polygon class="st3" points="20.58,63.62 19.2,63.04 19.18,63.04 19.18,63.04 18.59,80.06 		"/>
		<polygon class="st3" points="31.28,68.42 31.29,68.39 30.18,67.65 30.18,67.65 28.52,83.19 		"/>
		<path class="st3" d="M15.23,58.79c-0.05,0-0.1,0-0.15,0.01c0.03-0.11,0.05-0.22,0.05-0.34c0-0.73-0.64-1.33-1.43-1.33
			c-0.64,0-1.19,0.39-1.37,0.94c-0.26,0-0.51,0.04-0.73,0.12c-0.25-0.08-0.55-0.12-0.87-0.12c-0.93,0-1.69,0.4-1.69,0.88
			s0.76,0.88,1.69,0.88c0.1,0,0.19,0,0.29-0.01c0.29,0.29,0.77,0.48,1.31,0.48c0.57,0,1.07-0.21,1.35-0.52h0.01
			c0.06,0,0.12,0,0.17-0.01c-0.03,0.1-0.04,0.21-0.04,0.32c0,0.72,0.63,1.3,1.4,1.3c0.78,0,1.4-0.58,1.4-1.3
			C16.63,59.37,16.01,58.79,15.23,58.79z"/>
	</g>
	<path class="st4" d="M33.67,18.72c2.99,0,5.42-2.42,5.42-5.41c0-2.99-2.42-5.41-5.42-5.41c-2.99,0-5.41,2.42-5.41,5.41
		C28.25,16.29,30.67,18.72,33.67,18.72z"/>
	<path class="st3" d="M32.59,60.29c0-1.54-1.6-2.8-3.58-2.8c-1.46,0-2.71,0.68-3.27,1.66c-0.33-0.19-0.72-0.3-1.13-0.3
		c-1.24,0-2.25,1-2.25,2.24c0,1.24,1.01,2.24,2.25,2.24c0.34,0,0.67-0.08,0.96-0.21c0.22,0.26,0.52,0.42,0.85,0.42
		c0.24,0,0.45-0.08,0.64-0.22c0.22-0.03,0.43-0.11,0.61-0.23c-0.03,0.11-0.05,0.22-0.05,0.33c0,0.73,0.69,1.31,1.53,1.31
		c0.59,0,1.1-0.28,1.35-0.69c0.19,0.08,0.39,0.12,0.6,0.12c0.89,0,1.61-0.77,1.61-1.72c0-0.42-0.14-0.81-0.38-1.1
		C32.5,61.01,32.59,60.66,32.59,60.29z"/>
	<g>
		<path class="st5" d="M49.58,6.15H49.3v1.43h-5.67v-0.2h-1.52v0.2h-0.19V8.4h0.19v3.48h-1.71v0.82h1.71v4.71H40.6v0.82h1.52v5.22
			H31.29V21.6h-1.71v1.84h-1.33v0.82h1.33v5.01h-1.33v0.82h1.33v3.68h-1.52v0.82h1.52v4.2h-1.15v0.82h1.15v3.48h-4.17v0.07
			l1.66,0.95l0.29-1.01l2.46,1.36c0.86,0.7,1.56,1.57,1.95,2.55l0,0l1.02,0.04c0.53-0.64,1.32-0.73,1.97-0.45l2.2-1.81
			c0.04-0.02,0.09-0.04,0.13-0.05c0.02,0,0.03,0,0.05-0.01c0.03-0.01,0.06-0.01,0.08-0.01c0.02,0,0.04,0,0.06,0
			c0.02,0,0.05,0,0.07,0c0.02,0,0.04,0.01,0.06,0.01c0.02,0,0.04,0.01,0.06,0.01c0.02,0.01,0.04,0.02,0.06,0.03
			c0.02,0.01,0.03,0.01,0.05,0.02c0.02,0.01,0.04,0.02,0.06,0.04c0.01,0.01,0.03,0.02,0.04,0.03c0.02,0.02,0.04,0.03,0.06,0.05
			c0.01,0.01,0.02,0.02,0.04,0.03c0.02,0.02,0.04,0.04,0.05,0.06c0.01,0.01,0.01,0.01,0.02,0.02l0,0c0.1,0.12,0.17,0.27,0.19,0.42
			l4.29,3.59l2.65,0.81l-0.19,0.64l6.44,1.6h10.06l1.36-7.47h-5v-5.01h5.91l0.15-0.82h-6.06v-4.2h11.2v0.47H80.6
			c-0.36,0-0.65-0.29-0.65-0.65v0c0-0.33,0.25-0.6,0.57-0.64H70.39V30.1h10.72c0-0.27,0-0.54,0-0.82H70.39v-5.01h1.63v-0.82h-1.63
			v-5.22h1.9v-0.82h-1.9V12.7h1.9v-0.82h-1.9v-0.31h-1.52v0.31h-11.2V8.4h1.14V7.58h-1.14V5.23h-1.52v2.35h-3.96V6.15h-0.37V1.73
			h13.37h0c0,0-0.01,0-0.01,0c-0.27-0.07-0.55-0.13-0.82-0.19c-0.28-0.06-0.56-0.12-0.84-0.18c-0.04-0.01-0.08-0.02-0.12-0.03H51.82
			V0.75h-0.28V0.27c-0.17,0-0.34,0.01-0.52,0.02c-0.21,0.01-0.43,0.02-0.64,0.02c-0.17,0.01-0.34,0.01-0.51,0.02c0,0-0.01,0-0.01,0
			v0v0.42h-0.28v0.14h-5.05C44.18,0.94,43.84,1,43.49,1.06l-2.15,0.58V1.49l-0.27,0.06V1.7h-0.66c-0.02,0.01-0.05,0.01-0.07,0.02
			c-0.18,0.04-0.35,0.08-0.53,0.13h0h9.76L49.58,6.15L49.58,6.15z M42.11,40.64h-1.14v1.84H38.7v2.15h-6.45V43.1h-0.95v-3.48h10.82
			V40.64z M42.11,38.8H31.29v-0.1h10.82V38.8z M42.11,37.67H31.29V34.6h10.82V37.67z M42.11,32.76H31.29V30.1h10.82V32.76z
			 M42.11,28.67H31.29v-4.4h10.82V28.67z M57.68,12.7h11.2v4.71h-11.2V12.7z M57.68,18.23h11.2v5.22h-11.2V18.23z M57.68,24.27h11.2
			v5.01h-11.2V24.27z M57.68,30.1h11.2v3.68h-11.2V30.1z M49.57,7.19l0.02,0.01h-0.02V7.19z M49.57,7.35h2.05l-0.6,0.23h-1.45
			L49.57,7.35L49.57,7.35z M51.79,44.12v-0.77l0.13-0.05v0.82H51.79z M51.92,44.36v0.28h-0.13v-0.22L51.92,44.36z M51.79,43.07
			v-0.78l0.13-0.05v0.83L51.79,43.07L51.79,43.07z M51.79,42.01v-0.77l0.13-0.05v0.82H51.79z M51.79,40.96v-0.77l0.13-0.05v0.82
			L51.79,40.96L51.79,40.96z M51.79,39.9v-0.29h0.13v0.29H51.79z M51.45,37.16l0.47-0.18v0.18H51.45z M49.98,29.28l1.94-0.75v0.75
			H49.98z M51.92,30.1v0.31h-2.13l0.8-0.31H51.92z M51.82,21.2l0.1-0.04v0.04H51.82z M51.92,24.32v0.81h-2.09L51.92,24.32z
			 M49.8,20.92l2.12-0.82v0.82H49.8z M50.65,17.41l1.27-0.49v0.49L50.65,17.41z M51.92,18.23v0.58h-2.14l1.5-0.58H51.92z
			 M51.31,11.88l0.61-0.24v0.24H51.31z M51.92,12.7v0.83h-2.16l2.15-0.83H51.92z M51.92,7.42v0.17h-0.43L51.92,7.42z M49.57,8.41
			h2.07l-2.07,0.8V8.41z M51.92,8.48v0.84h-2.16L51.92,8.48z M49.57,9.46h2.07l-2.07,0.8V9.46z M51.92,9.53v0.84h-2.16L51.92,9.53z
			 M49.57,10.35l0.02,0.02h-0.02V10.35z M49.57,10.51h2.07l-2.07,0.8V10.51z M51.92,10.58v0.84h-2.17L51.92,10.58z M49.57,11.41
			l0.01,0.01L49.57,11.41L49.57,11.41z M49.57,11.57h2.08l-0.81,0.31h-1.28V11.57z M49.57,12.7h1.87l-1.87,0.72V12.7z M49.57,13.52
			l0.01,0.01L49.57,13.52L49.57,13.52z M49.57,13.68h2.07l-2.07,0.8V13.68z M51.92,13.75v0.84h-2.17L51.92,13.75z M49.57,14.73h2.08
			l-2.08,0.81V14.73z M51.92,14.81v0.83h-2.15L51.92,14.81z M49.57,15.79h2.08l-2.08,0.81V15.79z M51.92,15.86v0.83h-2.15
			L51.92,15.86z M49.57,16.68l0.02,0.02h-0.02V16.68z M49.57,16.84h2.08l-1.46,0.57h-0.62V16.84L49.57,16.84z M49.57,18.23h1.24
			l-1.24,0.48V18.23z M49.57,18.95h2.11l-2.11,0.82V18.95z M51.92,19.04v0.82H49.8L51.92,19.04z M49.57,20.01h2.11l-2.11,0.82V20.01
			z M49.57,21.06h2.13l-0.34,0.13h-1.78V21.06z M49.57,24.27h2.04l-2.04,0.79V24.27z M49.57,25.28h2.09l-2.09,0.81V25.28z
			 M51.92,25.36v0.83h-2.14L51.92,25.36z M49.57,26.34h2.09l-2.09,0.81V26.34z M51.92,26.41v0.83h-2.15L51.92,26.41z M49.57,27.39
			h2.1l-2.1,0.81V27.39z M51.92,27.48v0.82H49.8L51.92,27.48z M49.57,28.45h2.1l-2.1,0.81V28.45z M49.57,30.1h0.55l-0.55,0.21V30.1z
			 M49.57,30.55h2.12l-2.12,0.82V30.55z M51.92,30.64v0.82h-2.11L51.92,30.64z M49.57,31.61h2.1l-2.1,0.81V31.61z M51.92,31.69v0.82
			h-2.13L51.92,31.69z M49.57,32.67h2.1l-2.1,0.81V32.67z M51.92,32.75v0.83h-2.13L51.92,32.75z M49.57,33.72h2.12l-0.16,0.06h-1.95
			L49.57,33.72L49.57,33.72z M51.92,34.6v0.03h-2.12l0.07-0.03H51.92z M49.57,34.77h2.11l-2.11,0.82V34.77z M51.92,34.86v0.82H49.8
			L51.92,34.86z M49.57,35.68L49.57,35.68L49.57,35.68L49.57,35.68z M49.57,35.83h2.11l-2.11,0.82V35.83z M51.92,35.92v0.82H49.8
			L51.92,35.92z M49.57,36.88h2.13l-0.72,0.28h-1.41V36.88z M50.84,39.62v0.29h-1.07l0.74-0.29H50.84z M49.57,39.62h0.47l-0.47,0.18
			V39.62z M49.57,40.05h1.27v0.32l-1.27,0.49V40.05z M50.84,40.55v0.41h-1.05L50.84,40.55z M49.57,41.1h1.27v0.32l-1.27,0.49V41.1z
			 M50.84,41.61v0.41h-1.05L50.84,41.61z M49.57,42.16h1.27v0.32l-1.27,0.49V42.16z M50.84,42.66v0.41h-1.06L50.84,42.66z
			 M49.57,43.21h1.27v0.33l-1.27,0.49V43.21z M50.84,43.72v0.4h-1.04L50.84,43.72z M49.57,44.27h1.27v0.33l-0.1,0.04h-1.17V44.27z
			 M47.62,8.4h1.69v3.48h-1.69V8.4z M43.63,8.4h3.04v3.48h-3.04V8.4z M43.63,12.7h5.67v4.71h-5.67V12.7z M43.63,18.23h5.67v2.97
			h-5.67V18.23z M49.3,24.27v5.01h-2.25v-5.01L49.3,24.27z M43.63,24.27h2.66v5.01h-2.66V24.27z M43.63,30.1h5.67v3.68h-5.67V30.1z
			 M43.63,34.6h5.67v2.56h-5.67V34.6z M43.63,40.64v-1.02h5.67v5.01h-0.93v-2.15h-3.23v-1.84L43.63,40.64L43.63,40.64z M53.12,8.4
			h3.04v3.48h-3.04V8.4z M52.19,12.7h3.96v4.71h-3.96V12.7L52.19,12.7z M52.19,18.23h3.96v2.97h-3.96V18.23L52.19,18.23z
			 M52.19,24.27h3.96v5.01h-3.96V24.27L52.19,24.27z M52.19,30.1h3.96v3.68h-3.96V30.1L52.19,30.1z M52.19,34.6h3.96v2.56h-3.96
			V34.6L52.19,34.6z M52.19,39.62h3.96v5.01h-3.96V39.62L52.19,39.62z M51.92,6.36V7.2h-2.17L51.92,6.36z M51.55,0.98v0.43h-1.39
			L51.55,0.98z M50.13,0.34h0.88l-0.88,0.3V0.34z M51.27,0.43V0.7h-0.81L51.27,0.43z M49.85,0.89h1.42l-1.42,0.44V0.89z M49.85,1.85
			V1.56h1.39l-1.39,0.43V1.85z M51.55,1.63v0.44h-1.42L51.55,1.63z M49.85,2.22h1.4l-1.4,0.44V2.22z M51.55,2.3v0.44h-1.41
			L51.55,2.3z M49.85,2.88h1.42l-1.42,0.44V2.88z M51.55,2.96V3.4h-1.39L51.55,2.96z M49.85,3.54h1.4l-1.4,0.44V3.54z M51.55,3.62
			v0.44h-1.41L51.55,3.62z M49.85,4.21h1.41l-1.41,0.44V4.21z M51.55,4.29v0.44h-1.4L51.55,4.29z M49.85,4.87h1.41l-1.41,0.44V4.87z
			 M51.55,4.95v0.43h-1.4L51.55,4.95z M49.85,5.53h1.42l-1.42,0.44V5.53z M51.55,5.62v0.43h-1.39L51.55,5.62z M51.63,6.3l-2.06,0.8
			V6.3L51.63,6.3z M43.91,1.7h-2.18l2.18-0.59V1.7z M44.18,1.04h2.21l-2.21,0.6V1.04z M46.75,1.7h-2.21l2.21-0.6V1.7z M47.02,1.04
			h2.25l-2.25,0.61V1.04z M47.41,1.7l2.17-0.59V1.7L47.41,1.7z"/>
		<path class="st5" d="M23.02,42.28l0.21,0.2C23.18,42.41,23.1,42.34,23.02,42.28z"/>
		<path class="st5" d="M100.57,45.45v-3.58h-4.93v2.76h-2.66v-5.01h1.52V38.8h-1.52v-4.2h1.15v-0.82h-1.15V30.1h1.33v-0.82H84.06
			v-2.35h-1.71v2.35h-0.24v0.82h0.24v3.68h0.43c0.36,0,0.65,0.29,0.65,0.65v0c0,0.36-0.29,0.65-0.65,0.65h1.27V34.6h7.59v4.2h-5.27
			l0.03,0.23l0.09,0.59h5.14v5.01h-4.38l1.13,7.47h17.09c0-0.22-0.01-0.43-0.02-0.65c0-0.16-0.01-0.31-0.02-0.47
			c0-0.1-0.01-0.2-0.01-0.3c-0.02-0.36-0.03-0.71-0.06-1.07c0-0.02,0-0.04,0-0.07c-0.05-0.82-0.12-1.64-0.22-2.45
			c0-0.01,0-0.01,0-0.02c-0.06-0.55-0.13-1.09-0.21-1.63L100.57,45.45L100.57,45.45z M88.04,32.45c-1.96,0.33-3.29,0.88-3.99,1.22
			V30.1h7.59v0.6C91.13,31.25,90.04,32.12,88.04,32.45z"/>
		<path class="st5" d="M35.82,47.8c0.13,0.48,0.05,1.06-0.35,1.69c0,0-0.11,1.21-0.66,2.61h0.72l4.37-3.1l-2.77-2.31L35.82,47.8z"/>
		<path class="st5" d="M0.04,51.01c-0.01,0.14-0.01,0.29-0.01,0.43c-0.01,0.22-0.01,0.44-0.02,0.66H22.2
			c-0.02-0.03-0.05-0.07-0.07-0.1c-0.05-0.07-0.1-0.14-0.15-0.22c-0.04-0.06-0.08-0.11-0.12-0.17c-0.08-0.12-0.16-0.24-0.23-0.36
			c-0.04-0.06-0.08-0.12-0.11-0.18c-0.05-0.08-0.09-0.15-0.14-0.23c-0.04-0.06-0.08-0.12-0.11-0.19c-0.05-0.08-0.1-0.17-0.15-0.25
			c-0.04-0.07-0.08-0.14-0.12-0.21c-0.06-0.11-0.12-0.21-0.18-0.32c-0.03-0.06-0.07-0.12-0.1-0.18c-0.05-0.08-0.09-0.17-0.14-0.25
			c-0.03-0.06-0.06-0.11-0.09-0.17c-0.07-0.12-0.13-0.25-0.2-0.37c-0.02-0.05-0.05-0.09-0.07-0.14c-0.05-0.1-0.11-0.21-0.16-0.31
			c-0.03-0.05-0.05-0.1-0.08-0.16c-0.05-0.1-0.1-0.2-0.15-0.3c-0.02-0.04-0.04-0.08-0.06-0.12c-0.07-0.14-0.14-0.28-0.21-0.42
			c-0.01-0.01-0.01-0.03-0.02-0.04c-0.38-0.76-0.73-1.5-1.07-2.17c0,0,0.63-0.73,1.17-0.32c0.43,0.33,1.31,1.18,1.65,1.51
			c-0.2-0.86-0.15-2.03,1.09-2.94l0.4-1.36c-0.06-0.02-0.13-0.05-0.2-0.07c-1.14-0.31-2.47,0.1-2.66,0.72
			c-0.19,0.61-1.52,0.82-2.28,1.33c-0.45,0.3-0.7,0.9-0.83,1.33h-1.45v-4.61h-1.92v-0.69h-1.11v0.18h-0.58v-0.37h0.81l0.13-1.42
			c0.01-0.01,0.03-0.01,0.03-0.02l0.65-0.84v0l0.33-0.42l0.32-0.42l0.33-0.42v0L14.67,36l0.33-0.42l0.32-0.42h0l0.32-0.42l0.33-0.42
			c0,0,0,0,0,0l0.33-0.42l0.33-0.42l0.33-0.42l0.33-0.42l0.33-0.42v0l0.33-0.42l0.32-0.42h0l0.32-0.42v0h0l0.32-0.42c0,0,0,0,0,0
			c0,0,0-0.01,0-0.01c0,0,0-0.01,0-0.01c0,0,0,0,0,0l-0.15-0.55c0.06,0.01,0.12,0.02,0.19,0.02v8.94l-1.82,0.69
			c-0.04,0.01-0.04,0.04-0.02,0.06h-1.17v0.4h6.23v-0.4h-0.93c0-0.02-0.01-0.03-0.04-0.04l-2.09-0.7v-8.96
			c0.19-0.04,0.32-0.13,0.32-0.25c0-0.14-0.22-0.26-0.49-0.26c-0.27,0-0.49,0.12-0.49,0.26c0,0.06,0.04,0.12,0.11,0.16l-0.74,0.39
			l0,0c-0.01,0-0.01,0.01-0.02,0.01l-1.3,1.68l-1.63,2.1l-0.65,0.84l-0.65,0.84l-0.65,0.84l-0.65,0.84l-0.65,0.84
			c-0.01,0.01-0.01,0.02,0,0.02l-4.04,0.02v1.33H7.18v0.59h0.48v-0.28h2.36v0.37H9.21v-0.16H8.22v0.68H5.29v4.61H0.54
			c-0.19,1.36-0.34,2.73-0.43,4.12c0,0.01,0,0.02,0,0.03c-0.02,0.36-0.04,0.73-0.06,1.09C0.05,50.79,0.05,50.9,0.04,51.01z
			 M12.63,38.4l-0.44-0.43l0.66,0.15L12.63,38.4z M12.96,37.97l-0.44-0.43l0.66,0.15L12.96,37.97z M13.28,37.56l-0.44-0.44
			l0.66,0.15L13.28,37.56z M13.61,37.14l-0.44-0.44l0.66,0.15L13.61,37.14z M13.93,36.72l-0.44-0.44l0.66,0.15L13.93,36.72z
			 M14.26,36.3l-0.44-0.43l0.66,0.15L14.26,36.3z M14.59,35.87l-0.44-0.43l0.66,0.15L14.59,35.87z M14.91,35.45l-0.43-0.43
			l0.65,0.15L14.91,35.45z M15.24,35.03L14.8,34.6l0.66,0.15L15.24,35.03z M15.56,34.62l-0.44-0.44l0.67,0.15L15.56,34.62z
			 M15.89,34.2l-0.44-0.44l0.66,0.15L15.89,34.2z M16.21,33.78l-0.44-0.44l0.66,0.15L16.21,33.78z M16.54,33.35l-0.44-0.43
			l0.66,0.15L16.54,33.35z M16.87,32.93l-0.44-0.43l0.66,0.15L16.87,32.93z M17.19,32.51l-0.44-0.43l0.65,0.15L17.19,32.51z
			 M17.52,32.09l-0.43-0.43l0.65,0.15L17.52,32.09z M17.85,31.67l-0.43-0.42l0.65,0.15L17.85,31.67z M18.17,31.24l-0.43-0.42
			l0.64,0.14L18.17,31.24z M18.5,30.82l-0.42-0.42l0.64,0.14L18.5,30.82z M21.02,39.68h-3.75l1.77-0.67L21.02,39.68z M18.95,29.55
			c0.18,0,0.32,0.08,0.32,0.17c0,0.1-0.14,0.17-0.32,0.17c-0.18,0-0.32-0.08-0.32-0.17C18.63,29.63,18.77,29.55,18.95,29.55z
			 M18.6,30l0.12,0.45l-0.68-0.15L18.6,30z M17.9,30.42l0.45,0.45l-0.68-0.15L17.9,30.42z M17.57,30.84l0.45,0.45l-0.68-0.15
			L17.57,30.84z M17.24,31.26l0.45,0.44l-0.67-0.15L17.24,31.26z M16.92,31.68l0.45,0.44l-0.67-0.15L16.92,31.68z M16.59,32.1
			l0.44,0.44l-0.67-0.15L16.59,32.1z M16.26,32.52l0.44,0.44l-0.66-0.15L16.26,32.52z M15.94,32.95l0.44,0.43l-0.66-0.15
			L15.94,32.95z M15.61,33.37l0.44,0.43l-0.66-0.15L15.61,33.37z M15.29,33.79l0.44,0.43l-0.66-0.15L15.29,33.79z M14.96,34.21
			l0.43,0.43l-0.65-0.15L14.96,34.21z M14.64,34.63l0.44,0.43l-0.66-0.15L14.64,34.63z M14.31,35.04l0.44,0.44l-0.67-0.15
			L14.31,35.04z M13.99,35.46l0.44,0.44l-0.66-0.15L13.99,35.46z M13.66,35.89l0.44,0.43l-0.66-0.15L13.66,35.89z M13.33,36.31
			l0.44,0.43l-0.66-0.15L13.33,36.31z M13.01,36.73l0.44,0.43l-0.66-0.15L13.01,36.73z M12.68,37.15l0.44,0.43l-0.65-0.15
			L12.68,37.15z M12.36,37.57L12.8,38l-0.66-0.15L12.36,37.57z M12.03,37.99l0.44,0.43l-0.66-0.15L12.03,37.99z M9.21,40.74h3.11
			v0.1H9.21V40.74z"/>
		<polygon class="st5" points="41.13,52.1 41.24,52.1 41.17,52.08 		"/>
	</g>
	<path class="st3" d="M31.77,47.02L31.77,47.02c-0.4-0.98-1.1-1.85-1.95-2.55l-2.46-1.36l-0.29,1.01l-1.66-0.95l-0.15-0.09l-0.29,1
		l-0.01,0.05l-1.72-1.64l-0.21-0.2l-0.23-0.22l-0.02,0.08l-0.4,1.36c-1.24,0.91-1.29,2.09-1.09,2.94c0.09,0.08,0.14,0.13,0.14,0.13
		L31.77,47.02z"/>
	<g>
		<path class="st4" d="M85.94,36.4c-0.03-0.07-0.06-0.14-0.09-0.2C85.88,36.26,85.91,36.33,85.94,36.4z"/>
		<path class="st4" d="M86.04,36.69c-0.02-0.08-0.05-0.17-0.08-0.25C85.99,36.53,86.02,36.61,86.04,36.69z"/>
		<path class="st4" d="M86.11,37.03c-0.01-0.09-0.03-0.18-0.05-0.26C86.08,36.85,86.1,36.94,86.11,37.03z"/>
		<path class="st4" d="M85.82,36.14c-0.04-0.07-0.08-0.14-0.13-0.21C85.74,35.99,85.78,36.06,85.82,36.14z"/>
		<path class="st4" d="M62.97,54.1c-0.05-0.01-0.09-0.01-0.14-0.02C62.87,54.09,62.92,54.1,62.97,54.1z"/>
		<path class="st4" d="M63.25,54.13c-0.07,0-0.14,0-0.21-0.01C63.11,54.12,63.18,54.13,63.25,54.13z"/>
		<path class="st4" d="M62.74,54.06c-0.04-0.01-0.08-0.02-0.13-0.04C62.66,54.03,62.7,54.05,62.74,54.06z"/>
		<path class="st4" d="M61.79,53.53c-0.05-0.04-0.09-0.09-0.13-0.14C61.7,53.44,61.75,53.49,61.79,53.53z"/>
		<path class="st4" d="M62.53,53.99c-0.04-0.01-0.08-0.03-0.12-0.05C62.45,53.96,62.49,53.98,62.53,53.99z"/>
		<path class="st4" d="M61.96,53.68c-0.06-0.04-0.11-0.09-0.16-0.14C61.85,53.59,61.91,53.64,61.96,53.68z"/>
		<path class="st4" d="M62.14,53.8c-0.04-0.02-0.08-0.05-0.12-0.08C62.06,53.75,62.1,53.78,62.14,53.8z"/>
		<path class="st4" d="M62.33,53.9c-0.04-0.02-0.08-0.04-0.11-0.06C62.25,53.87,62.29,53.89,62.33,53.9z"/>
		<path class="st4" d="M87.26,44.63l-0.76-5.01l-0.09-0.59l1.99,13.15c0.13,0.86-0.53,1.61-1.36,1.87c0.83-0.25,1.49-1,1.36-1.87
			L88.4,52.1L87.26,44.63z"/>
		<path class="st4" d="M65.01,50.94c-0.4-0.04-0.77-0.53-0.69-0.95l2.04-12.14c0.08-0.5,0.42-0.93,0.93-0.93h8.6
			c0.51,0,0.92,0.42,0.93,0.93l0.09,4.45l8.77-6.38c-0.34-0.5-0.87-0.83-1.52-0.83h-0.1h-1.27h-0.67h-1H80.6H68.87h-2.86
			c-1.08,0-1.76,0.9-1.95,1.95l-0.32,1.77l-0.15,0.82l-0.91,5.01l-1.36,7.47l-0.01,0.07c-0.08,0.45,0.07,0.87,0.35,1.21L65.01,50.94
			z"/>
	</g>
	<path class="st6" d="M88.41,52.17l-1.99-13.15l-0.03-0.23l-0.27-1.77c0,0,0,0,0,0c-0.01-0.09-0.03-0.18-0.05-0.26
		c-0.01-0.02-0.01-0.05-0.02-0.07c-0.02-0.08-0.05-0.17-0.08-0.25c-0.01-0.02-0.01-0.03-0.02-0.05c-0.03-0.07-0.06-0.14-0.09-0.2
		c-0.01-0.02-0.02-0.04-0.03-0.06c-0.04-0.07-0.08-0.14-0.13-0.21c0-0.01-0.01-0.01-0.01-0.02l0,0l-8.77,6.38l0.07,3.66
		c0.01,0.51-0.45,0.75-0.93,0.93l-10.81,4.03c-0.08,0.03-0.16,0.04-0.23,0.03l-3.36,2.44l0,0c0,0,0.01,0.01,0.01,0.01
		c0.04,0.05,0.08,0.09,0.13,0.14c0,0,0.01,0.01,0.01,0.01c0.05,0.05,0.1,0.09,0.16,0.14c0.02,0.01,0.04,0.03,0.06,0.04
		c0.04,0.03,0.08,0.05,0.12,0.08c0.02,0.02,0.05,0.03,0.07,0.04c0.04,0.02,0.08,0.04,0.11,0.06c0.03,0.01,0.05,0.03,0.08,0.04
		c0.04,0.02,0.08,0.03,0.12,0.05c0.03,0.01,0.06,0.02,0.09,0.03c0.04,0.01,0.08,0.03,0.13,0.04c0.03,0.01,0.06,0.02,0.08,0.02
		c0.05,0.01,0.09,0.02,0.14,0.02c0.02,0,0.05,0.01,0.07,0.01c0.07,0.01,0.14,0.01,0.21,0.01c0,0,0,0,0,0h0h23.2
		c0.2,0,0.4-0.03,0.59-0.09C87.88,53.79,88.54,53.03,88.41,52.17z"/>
	<path class="st7" d="M76.82,37.84c-0.01-0.51-0.42-0.93-0.93-0.93h-8.6c-0.51,0-0.84,0.42-0.93,0.93l-2.04,12.14
		c-0.07,0.42,0.29,0.91,0.69,0.95c0.08,0.01,0.16,0,0.23-0.03l10.81-4.03c0.48-0.18,0.94-0.42,0.93-0.93l-0.07-3.66L76.82,37.84z
		 M76.39,45.96c0,0.17-0.42,0.32-0.54,0.36l-10.81,4.03c-0.03-0.02-0.15-0.19-0.14-0.27l0.28-1.68l0,0l0.17-1.03l0,0l0.11-0.66l0,0
		l0.52-3.12l0.95-5.66c0.03-0.18,0.13-0.43,0.34-0.43h5.53h3.07c0.19,0,0.33,0.16,0.33,0.35l0.01,0.68l0,0l0.02,0.78L76.39,45.96z"
		/>
	<g>
		<path class="st8" d="M72.82,37.51h-5.53c-0.21,0-0.31,0.26-0.34,0.43l-0.95,5.66l0.11-0.63L72.82,37.51z"/>
		<polygon class="st8" points="76.24,38.54 76.22,37.86 76.23,37.97 65.47,46.72 65.35,47.38 		"/>
		<path class="st8" d="M76.25,39.32l0,0.09l-11.07,9l-0.28,1.68c-0.01,0.08,0.1,0.25,0.14,0.27l10.81-4.03
			c0.12-0.05,0.55-0.19,0.54-0.36L76.25,39.32z"/>
	</g>
	<g>
		<path class="st9" d="M76.23,37.97l0-0.12c0-0.18-0.14-0.35-0.33-0.35h-3.07l-6.72,5.46l-0.11,0.63l-0.52,3.12l0,0L76.23,37.97z"/>
		<polygon class="st9" points="76.26,39.41 76.25,39.32 76.24,38.54 76.24,38.54 65.35,47.38 65.35,47.38 65.18,48.41 65.18,48.41 
					"/>
	</g>
	<g>
		<path class="st10" d="M50.57,55.92l-2.55-2.13l-3.77-1.39l-0.05,0.19l5.43,4.54l0.92-1.19C50.56,55.94,50.57,55.93,50.57,55.92z"
			/>
		<path class="st10" d="M37.85,46.09l-0.71,0.59L39.91,49l0.69-0.49l1.75,0.54l-4.29-3.59C38.09,45.67,38.03,45.9,37.85,46.09z"/>
	</g>
	<path class="st11" d="M52.95,57.09l-1.62-1.25c-0.23-0.18-0.57-0.14-0.76,0.08c-0.01,0.01-0.01,0.01-0.02,0.02l-0.92,1.19
		l-0.26,0.34c-0.19,0.24-0.14,0.59,0.1,0.77l1.48,1.14L52.95,57.09z"/>
	<g>
		<path class="st12" d="M90.3,55.72c0.02,0.07,0.03,0.15,0.05,0.23C90.33,55.87,90.32,55.79,90.3,55.72z"/>
		<path class="st12" d="M90.09,55.18c0.03,0.06,0.06,0.11,0.09,0.17C90.15,55.29,90.12,55.23,90.09,55.18z"/>
		<path class="st12" d="M59.81,60.19h-4.77v-3.81l-1.12-0.41l-0.97,1.12l-1.99,2.3l-1.11,1.29l0.05,0.22
			c0.27,0.02,0.54,0.05,0.81,0.1l0.23-0.45c0.07-0.14,0.19-0.24,0.34-0.2l0.43,0.11c0.15,0.04,0.21,0.19,0.2,0.34l-0.02,0.51
			c0.26,0.09,0.5,0.19,0.75,0.3l0.33-0.38c0.1-0.12,0.24-0.18,0.38-0.11l0.39,0.22c0.13,0.07,0.15,0.23,0.11,0.38l-0.14,0.49
			c0.22,0.15,0.44,0.3,0.65,0.47l0.42-0.29c0.13-0.09,0.28-0.12,0.39-0.01l0.33,0.31c0.11,0.11,0.09,0.26,0.01,0.39l-0.11,0.18
			l19.05-4.46c0.01-0.07,0.04-0.13,0.09-0.18l0.41-0.39c0.14-0.13,0.34-0.09,0.5,0.02l0.34,0.23l0.53-0.12
			c0.16-0.12,0.32-0.24,0.49-0.35l-0.18-0.62c-0.06-0.19-0.03-0.39,0.14-0.48l0.5-0.27c0.17-0.09,0.35-0.01,0.48,0.14l0.42,0.48
			c0.31-0.14,0.63-0.27,0.95-0.38l-0.02-0.64c-0.01-0.19,0.07-0.38,0.25-0.43l0.55-0.14c0.19-0.05,0.34,0.08,0.43,0.25l0.29,0.58
			c0.33-0.06,0.67-0.1,1.01-0.13l0.14-0.63c0.04-0.19,0.16-0.35,0.35-0.35h0.57c0.19,0,0.31,0.16,0.35,0.35l0.14,0.63
			c0.35,0.03,0.69,0.07,1.03,0.13l0.29-0.58c0.09-0.17,0.24-0.3,0.43-0.25l0.55,0.14c0.16,0.04,0.24,0.18,0.25,0.34l4.33-1.01
			c-0.35-0.6-0.95-1-1.63-1H59.75c0.04,0.15,0.06,0.3,0.06,0.46L59.81,60.19L59.81,60.19L59.81,60.19z"/>
		<path class="st12" d="M90.21,55.42c0.03,0.08,0.06,0.16,0.08,0.25C90.27,55.59,90.24,55.5,90.21,55.42z"/>
		<path class="st12" d="M90.36,56.02c0.01,0.09,0.02,0.19,0.02,0.28C90.37,56.21,90.37,56.11,90.36,56.02z"/>
	</g>
	<g>
		<path class="st13" d="M76.32,58.35l-0.53,0.12l0.19,0.13C76.1,58.52,76.21,58.43,76.32,58.35z"/>
		<path class="st13" d="M71.26,65.6c0.01-0.19,0.18-0.3,0.38-0.33l0.64-0.1c0.05-0.34,0.11-0.68,0.19-1l-0.56-0.33
			c-0.17-0.1-0.29-0.26-0.23-0.45l0.18-0.54c0.06-0.19,0.25-0.25,0.45-0.23l0.64,0.06c0.13-0.32,0.28-0.62,0.43-0.92l-0.46-0.45
			c-0.14-0.14-0.21-0.32-0.11-0.49l0.3-0.48c0.1-0.16,0.31-0.18,0.49-0.11l0.61,0.22c0.2-0.27,0.42-0.54,0.65-0.79l-0.33-0.56
			c-0.06-0.1-0.09-0.22-0.08-0.32L55.4,63.25l-0.15,0.25c0.18,0.2,0.35,0.4,0.51,0.62l0.48-0.17c0.14-0.05,0.3-0.04,0.38,0.09
			l0.24,0.38c0.08,0.13,0.02,0.28-0.09,0.38l-0.36,0.36c0.13,0.24,0.24,0.48,0.34,0.73l0.51-0.05c0.15-0.01,0.3,0.03,0.35,0.18
			l0.08,0.26h13.54c-0.01-0.03-0.02-0.07-0.01-0.11L71.26,65.6z"/>
		<path class="st13" d="M89.98,59.66c0.14,0.15,0.27,0.31,0.4,0.46v-1.17c-0.01,0.05-0.04,0.1-0.07,0.15L89.98,59.66z"/>
		<path class="st13" d="M85.74,56.23l-0.02,0.64c0.32,0.11,0.64,0.24,0.95,0.38l0.43-0.49c0.13-0.15,0.31-0.23,0.48-0.14l0.5,0.27
			c0.17,0.09,0.19,0.29,0.14,0.48L88.02,58c0.29,0.19,0.56,0.39,0.83,0.6l0.53-0.37c0.16-0.11,0.36-0.15,0.5-0.02l0.41,0.39
			c0.04,0.04,0.06,0.08,0.08,0.12V56.3v0c0,0,0,0,0,0c0-0.1-0.01-0.19-0.02-0.28c0-0.03-0.01-0.05-0.01-0.08
			c-0.01-0.08-0.03-0.15-0.05-0.23c0-0.02-0.01-0.03-0.01-0.05c-0.02-0.09-0.05-0.17-0.08-0.25c-0.01-0.02-0.02-0.05-0.03-0.07
			c-0.03-0.06-0.05-0.12-0.09-0.17c-0.01-0.02-0.01-0.03-0.02-0.05l0,0l-4.33,1.01C85.74,56.17,85.74,56.2,85.74,56.23z"/>
	</g>
	<g>
		<path class="st12" d="M22.56,52.59c-0.05-0.07-0.1-0.13-0.15-0.2C22.46,52.46,22.51,52.53,22.56,52.59z"/>
		<path class="st12" d="M23.22,53.4c-0.05-0.06-0.1-0.11-0.14-0.17C23.13,53.29,23.18,53.35,23.22,53.4z"/>
		<path class="st12" d="M31.17,54.78L31.17,54.78c0-0.75,0.61-1.36,1.36-1.36h1.06l0.08,0l0.81-0.58c0.13-0.25,0.24-0.5,0.33-0.75
			c0.56-1.4,0.66-2.61,0.66-2.61c0.4-0.63,0.47-1.21,0.35-1.69l1.32-1.11l0.71-0.59c0.18-0.19,0.24-0.42,0.21-0.63
			c-0.02-0.15-0.09-0.3-0.19-0.42l-0.2,0.16c0.05,0.06,0.08,0.12,0.1,0.19c0.07,0.27-0.09,0.55-0.36,0.63
			c-0.21,0.06-0.42-0.02-0.54-0.18l-2.14,1.7c0.14,0.11,0.24,0.27,0.29,0.45c0.13,0.48-0.15,0.97-0.63,1.1
			c-0.42,0.11-0.84-0.09-1.03-0.46l-8.18,6.52c1.17,0.79,2.52,1.26,4.08,1.2c0.92-0.03,1.7-0.24,2.37-0.55
			C31.35,55.55,31.17,55.19,31.17,54.78z"/>
		<path class="st12" d="M23.96,54.17c-0.05-0.05-0.1-0.1-0.16-0.15C23.86,54.07,23.91,54.12,23.96,54.17z"/>
		<path class="st12" d="M23.62,53.83c-0.07-0.07-0.14-0.15-0.21-0.22C23.48,53.68,23.55,53.76,23.62,53.83z"/>
		<path class="st12" d="M24.75,54.84c-0.05-0.04-0.11-0.08-0.16-0.12C24.64,54.76,24.69,54.8,24.75,54.84z"/>
		<path class="st12" d="M24.29,54.47c-0.05-0.05-0.11-0.09-0.16-0.14C24.19,54.38,24.24,54.43,24.29,54.47z"/>
		<path class="st12" d="M25.11,55.11c-0.06-0.04-0.11-0.08-0.17-0.12C25,55.03,25.05,55.07,25.11,55.11z"/>
		<path class="st12" d="M22.92,53.05c-0.05-0.06-0.09-0.11-0.14-0.17C22.83,52.94,22.88,52.99,22.92,53.05z"/>
		<path class="st12" d="M37.1,44.75c0.02,0,0.03,0,0.05-0.01C37.13,44.74,37.11,44.74,37.1,44.75z"/>
		<path class="st12" d="M37.23,44.73c0.02,0,0.04,0,0.06,0C37.26,44.73,37.25,44.73,37.23,44.73z"/>
		<path class="st12" d="M20.04,48.46c-0.03-0.05-0.05-0.1-0.08-0.16C19.99,48.36,20.01,48.41,20.04,48.46z"/>
		<path class="st12" d="M19.54,47.47c-0.01-0.01-0.01-0.03-0.02-0.04C19.52,47.44,19.53,47.45,19.54,47.47z"/>
		<path class="st12" d="M37.35,44.73c0.02,0,0.04,0.01,0.06,0.01C37.4,44.74,37.37,44.74,37.35,44.73z"/>
		<path class="st12" d="M37.7,44.87c0.02,0.02,0.04,0.03,0.06,0.05C37.74,44.91,37.72,44.89,37.7,44.87z"/>
		<path class="st12" d="M37.48,44.76c0.02,0.01,0.04,0.02,0.06,0.03C37.52,44.78,37.5,44.77,37.48,44.76z"/>
		<path class="st12" d="M37.59,44.81c0.02,0.01,0.04,0.02,0.06,0.04C37.63,44.83,37.61,44.82,37.59,44.81z"/>
		<path class="st12" d="M21.11,50.41c-0.04-0.07-0.08-0.14-0.12-0.21C21.02,50.27,21.07,50.34,21.11,50.41z"/>
		<path class="st12" d="M20.8,49.88c-0.03-0.06-0.07-0.12-0.1-0.18C20.73,49.76,20.77,49.82,20.8,49.88z"/>
		<path class="st12" d="M20.56,49.45c-0.03-0.06-0.06-0.11-0.09-0.17C20.5,49.33,20.53,49.39,20.56,49.45z"/>
		<path class="st12" d="M20.27,48.91c-0.02-0.05-0.05-0.09-0.07-0.14C20.22,48.82,20.25,48.86,20.27,48.91z"/>
		<path class="st12" d="M19.81,48.01c-0.02-0.04-0.04-0.08-0.06-0.12C19.77,47.93,19.79,47.97,19.81,48.01z"/>
		<path class="st12" d="M37.8,44.96c0.02,0.02,0.04,0.04,0.05,0.06C37.83,44.99,37.81,44.97,37.8,44.96z"/>
		<path class="st12" d="M21.26,50.66c0.04,0.06,0.08,0.12,0.11,0.19C21.33,50.79,21.3,50.72,21.26,50.66z"/>
		<path class="st12" d="M22.12,52c0.02,0.03,0.05,0.07,0.07,0.1c0.02,0.03,0.04,0.05,0.06,0.08C22.21,52.12,22.17,52.06,22.12,52z"
			/>
		<path class="st12" d="M21.63,51.26c-0.04-0.06-0.08-0.12-0.11-0.18C21.55,51.14,21.59,51.2,21.63,51.26z"/>
		<path class="st12" d="M21.98,51.78c-0.04-0.06-0.08-0.11-0.12-0.17C21.9,51.67,21.94,51.73,21.98,51.78z"/>
		<path class="st12" d="M21.4,46.58l11.39,0.48c0.53-0.64,1.32-0.73,1.97-0.45l2.2-1.81l-2.2,1.81c-0.65-0.27-1.44-0.18-1.97,0.45
			l-1.02-0.04L21.4,46.58c0,0-0.05-0.05-0.14-0.13c-0.34-0.33-1.21-1.17-1.65-1.51C20.16,45.35,21.4,46.58,21.4,46.58z"/>
	</g>
	<path class="st13" d="M33.36,48.63c-0.03-0.05-0.05-0.11-0.07-0.17c-0.13-0.48,0.15-0.97,0.63-1.1c0.29-0.08,0.59,0,0.81,0.18
		l2.14-1.7c-0.04-0.05-0.07-0.11-0.09-0.18c-0.07-0.27,0.09-0.55,0.36-0.63c0.2-0.05,0.4,0.02,0.52,0.17l0.2-0.16l0,0
		c-0.01-0.01-0.01-0.01-0.02-0.02c-0.02-0.02-0.04-0.04-0.05-0.06c-0.01-0.01-0.02-0.02-0.04-0.03c-0.02-0.02-0.04-0.03-0.06-0.05
		c-0.01-0.01-0.03-0.02-0.04-0.03c-0.02-0.01-0.04-0.03-0.06-0.04c-0.02-0.01-0.03-0.02-0.05-0.02c-0.02-0.01-0.04-0.02-0.06-0.03
		c-0.02-0.01-0.04-0.01-0.06-0.01c-0.02,0-0.04-0.01-0.06-0.01c-0.02,0-0.05,0-0.07,0c-0.02,0-0.04,0-0.06,0
		c-0.03,0-0.06,0.01-0.08,0.01c-0.02,0-0.03,0-0.05,0.01c-0.04,0.01-0.09,0.03-0.13,0.05l-2.2,1.81c-0.65-0.27-1.44-0.18-1.97,0.45
		L21.4,46.58c0,0-1.24-1.22-1.79-1.64c-0.54-0.42-1.17,0.32-1.17,0.32c0.34,0.68,0.7,1.41,1.07,2.17c0.01,0.01,0.01,0.03,0.02,0.04
		c0.07,0.14,0.14,0.28,0.21,0.42c0.02,0.04,0.04,0.08,0.06,0.12c0.05,0.1,0.1,0.2,0.15,0.3c0.03,0.05,0.05,0.1,0.08,0.16
		c0.05,0.1,0.11,0.21,0.16,0.31c0.02,0.05,0.05,0.09,0.07,0.14c0.06,0.12,0.13,0.25,0.2,0.37c0.03,0.06,0.06,0.12,0.09,0.17
		c0.05,0.08,0.09,0.17,0.14,0.25c0.03,0.06,0.07,0.12,0.1,0.18c0.06,0.11,0.12,0.21,0.18,0.32c0.04,0.07,0.08,0.14,0.12,0.21
		c0.05,0.09,0.1,0.17,0.15,0.25c0.04,0.06,0.08,0.12,0.11,0.19c0.05,0.08,0.09,0.15,0.14,0.23c0.04,0.06,0.08,0.12,0.11,0.18
		c0.08,0.12,0.15,0.24,0.23,0.36c0.04,0.06,0.08,0.11,0.12,0.17c0.05,0.07,0.1,0.14,0.15,0.22c0.04,0.06,0.09,0.12,0.13,0.18
		c0.05,0.07,0.1,0.14,0.16,0.21c0.05,0.07,0.1,0.13,0.15,0.2c0.07,0.1,0.15,0.19,0.23,0.29c0.05,0.06,0.09,0.11,0.14,0.17
		c0.05,0.06,0.1,0.12,0.16,0.19c0.05,0.06,0.1,0.11,0.14,0.17c0.06,0.07,0.12,0.14,0.19,0.2c0.07,0.08,0.14,0.15,0.21,0.22
		c0.06,0.06,0.12,0.13,0.19,0.19c0.05,0.05,0.1,0.1,0.16,0.15c0.06,0.05,0.11,0.11,0.17,0.16c0.05,0.05,0.1,0.1,0.16,0.14
		c0.1,0.08,0.19,0.17,0.29,0.25c0.05,0.04,0.11,0.08,0.16,0.12c0.06,0.05,0.13,0.1,0.19,0.14c0.06,0.04,0.11,0.08,0.17,0.12
		c0.02,0.02,0.04,0.03,0.07,0.05l0,0L33.36,48.63z"/>
	<g>
		<path class="st14" d="M33.93,47.36c-0.48,0.13-0.76,0.62-0.63,1.1c0.02,0.06,0.04,0.12,0.07,0.17c0.19,0.37,0.61,0.57,1.03,0.46
			c0.48-0.13,0.76-0.62,0.63-1.1c-0.05-0.18-0.15-0.34-0.29-0.45C34.52,47.36,34.22,47.28,33.93,47.36z"/>
		<path class="st14" d="M37.14,45.03c-0.27,0.07-0.43,0.35-0.36,0.63c0.02,0.07,0.05,0.13,0.09,0.18c0.12,0.16,0.33,0.24,0.54,0.18
			c0.27-0.07,0.43-0.35,0.36-0.63c-0.02-0.07-0.06-0.14-0.1-0.19C37.54,45.05,37.34,44.98,37.14,45.03z"/>
	</g>
	<path class="st15" d="M44.82,50.5l0.19-0.64l-2.65-0.81l-1.75-0.54L39.91,49l-4.37,3.1l-1.05,0.75l-0.81,0.58l-0.08,0h-1.06
		c-0.75,0-1.36,0.61-1.36,1.36v0c0,0.4,0.18,0.77,0.46,1.02c0.24,0.21,0.56,0.34,0.9,0.34h1.06c0.69,0,1.27-0.52,1.35-1.19
		l6.19-2.85l0.04-0.02l0.06,0.02l2.85,0.9l0.12-0.41l0.05-0.19l3.77,1.39l5.89,2.17l1.12,0.41v-1.8c0-0.55,0.26-1.05,0.66-1.38
		l-4.44-1.1L44.82,50.5z M33.18,55.51c-0.41,0-0.74-0.33-0.74-0.74c0-0.41,0.33-0.74,0.74-0.74c0.41,0,0.74,0.33,0.74,0.74
		C33.92,55.18,33.58,55.51,33.18,55.51z"/>
	<path class="st13" d="M55.04,54.58v1.8v3.81h4.77v-5.61c0-0.16-0.02-0.31-0.06-0.46c-0.2-0.76-0.89-1.32-1.71-1.32h-1.23
		c-0.42,0-0.81,0.15-1.11,0.4C55.3,53.53,55.04,54.03,55.04,54.58z"/>
	<path class="st16" d="M89.88,58.22c-0.14-0.13-0.34-0.09-0.5,0.02l-0.53,0.37c-0.26-0.21-0.54-0.41-0.83-0.6l0.18-0.62
		c0.06-0.19,0.03-0.39-0.14-0.48l-0.5-0.27c-0.17-0.09-0.35-0.01-0.48,0.14l-0.43,0.49c-0.31-0.14-0.63-0.27-0.95-0.38l0.02-0.64
		c0-0.03,0-0.06,0-0.09c-0.01-0.16-0.09-0.3-0.25-0.34l-0.55-0.14c-0.19-0.05-0.34,0.08-0.43,0.25l-0.29,0.58
		c-0.34-0.06-0.68-0.1-1.03-0.13l-0.14-0.63c-0.04-0.19-0.16-0.35-0.35-0.35h-0.57c-0.19,0-0.31,0.16-0.35,0.35l-0.14,0.63
		c-0.34,0.03-0.68,0.07-1.01,0.13l-0.29-0.58c-0.09-0.17-0.24-0.3-0.43-0.25l-0.55,0.14c-0.19,0.05-0.26,0.24-0.25,0.43l0.02,0.64
		c-0.32,0.11-0.64,0.24-0.95,0.38l-0.42-0.48c-0.13-0.15-0.31-0.23-0.48-0.14l-0.5,0.27c-0.17,0.09-0.19,0.29-0.14,0.48L76.81,58
		c-0.17,0.11-0.33,0.23-0.49,0.35c-0.11,0.08-0.22,0.17-0.33,0.26l-0.19-0.13l-0.34-0.23c-0.16-0.11-0.36-0.15-0.5-0.02l-0.41,0.39
		c-0.05,0.05-0.08,0.11-0.09,0.18c-0.02,0.1,0.02,0.22,0.08,0.32l0.33,0.56c-0.23,0.25-0.45,0.51-0.65,0.79l-0.61-0.22
		c-0.18-0.07-0.38-0.06-0.49,0.11l-0.3,0.48c-0.1,0.16-0.03,0.35,0.11,0.49l0.46,0.45c-0.16,0.3-0.3,0.61-0.43,0.92l-0.64-0.06
		c-0.19-0.02-0.39,0.04-0.45,0.23l-0.18,0.54c-0.06,0.19,0.06,0.35,0.23,0.45l0.56,0.33c-0.08,0.33-0.14,0.66-0.19,1l-0.64,0.1
		c-0.19,0.03-0.36,0.14-0.38,0.33l-0.04,0.57c0,0.04,0,0.08,0.01,0.11c0.04,0.13,0.17,0.22,0.32,0.27l0.62,0.18
		c0,0.34,0.03,0.68,0.06,1.02l-0.59,0.25c-0.18,0.08-0.32,0.22-0.28,0.41l0.11,0.56c0.04,0.19,0.22,0.28,0.41,0.28l0.65,0.02
		c0.09,0.33,0.19,0.66,0.32,0.97l-0.51,0.39c-0.15,0.12-0.25,0.3-0.17,0.47l0.24,0.51c0.08,0.18,0.28,0.21,0.47,0.17l0.63-0.14
		c0.17,0.3,0.35,0.58,0.55,0.86L73.66,73c-0.12,0.15-0.17,0.35-0.05,0.5l0.36,0.44c0.12,0.15,0.33,0.14,0.5,0.05l0.58-0.3
		c0.24,0.24,0.48,0.48,0.74,0.7l-0.26,0.59c-0.08,0.18-0.08,0.38,0.08,0.49l0.46,0.33c0.16,0.11,0.35,0.05,0.49-0.08l0.48-0.43
		c0.29,0.18,0.59,0.34,0.9,0.49l-0.1,0.64c-0.03,0.19,0.02,0.39,0.2,0.46l0.53,0.21c0.18,0.07,0.35-0.04,0.46-0.2l0.36-0.53
		c0.32,0.1,0.65,0.18,0.99,0.25l0.06,0.64c0.02,0.19,0.11,0.37,0.31,0.4l0.56,0.07c0.19,0.02,0.33-0.12,0.4-0.31l0.22-0.61
		c0.17,0.01,0.34,0.01,0.51,0.01c0.17,0,0.34,0,0.51-0.01l0.22,0.61c0.06,0.18,0.2,0.33,0.4,0.31l0.56-0.07
		c0.19-0.02,0.29-0.2,0.31-0.4l0.06-0.64c0.34-0.07,0.67-0.15,0.99-0.25l0.36,0.53c0.11,0.16,0.28,0.27,0.46,0.2l0.53-0.21
		c0.18-0.07,0.23-0.27,0.2-0.46l-0.1-0.64c0.31-0.15,0.61-0.31,0.89-0.49l0.48,0.43c0.15,0.13,0.34,0.19,0.49,0.08l0.46-0.33
		c0.16-0.11,0.16-0.32,0.08-0.5l-0.26-0.59c0.26-0.22,0.51-0.45,0.74-0.7l0.57,0.3c0.17,0.09,0.37,0.1,0.5-0.05l0.36-0.44
		c0.12-0.15,0.07-0.35-0.05-0.5l-0.4-0.51c0.2-0.28,0.38-0.57,0.55-0.86l0.63,0.14c0.19,0.04,0.39,0.01,0.47-0.17l0.24-0.51
		c0.08-0.18-0.01-0.35-0.17-0.47l-0.51-0.39c0.12-0.32,0.23-0.64,0.32-0.97l0.64-0.02c0.19-0.01,0.38-0.09,0.41-0.28l0.11-0.56
		c0.04-0.19-0.1-0.34-0.28-0.41l-0.6-0.25c0.04-0.33,0.06-0.67,0.06-1.02l0.62-0.18c0.19-0.05,0.34-0.18,0.33-0.38l-0.03-0.57
		c-0.01-0.19-0.18-0.3-0.38-0.33l-0.64-0.1c-0.05-0.34-0.11-0.68-0.19-1l0.56-0.32c0.17-0.1,0.29-0.26,0.23-0.45l-0.17-0.54
		c-0.06-0.19-0.25-0.25-0.45-0.23l-0.64,0.06c-0.13-0.32-0.28-0.62-0.44-0.92l0.46-0.45c0.14-0.14,0.21-0.32,0.11-0.49l-0.3-0.48
		c-0.1-0.16-0.31-0.18-0.49-0.11l-0.61,0.22c-0.08-0.11-0.17-0.22-0.25-0.32c-0.13-0.16-0.26-0.31-0.4-0.46l0.33-0.55
		c0.03-0.05,0.05-0.1,0.07-0.15c0.02-0.08,0.02-0.16,0-0.23c-0.02-0.04-0.04-0.09-0.08-0.12L89.88,58.22z M82.11,71.96
		c-3.06,0-5.55-2.48-5.55-5.55c0-3.06,2.48-5.55,5.55-5.55c3.06,0,5.55,2.48,5.55,5.55C87.66,69.47,85.18,71.96,82.11,71.96z"/>
	<circle class="st6" cx="82.11" cy="66.41" r="5.55"/>
	<path class="st16" d="M57.26,65.83l-0.51,0.05c-0.1-0.25-0.22-0.49-0.34-0.73l0.36-0.36c0.11-0.11,0.17-0.26,0.09-0.38l-0.24-0.38
		c-0.08-0.13-0.24-0.14-0.38-0.09l-0.48,0.17c-0.16-0.21-0.33-0.42-0.51-0.62l0.15-0.25l0.11-0.18c0.08-0.13,0.1-0.29-0.01-0.39
		l-0.33-0.31c-0.11-0.1-0.27-0.07-0.39,0.01l-0.42,0.29c-0.21-0.17-0.43-0.33-0.65-0.47l0.14-0.49c0.04-0.15,0.02-0.3-0.11-0.38
		l-0.39-0.22c-0.13-0.07-0.28-0.01-0.38,0.11l-0.33,0.38c-0.24-0.11-0.49-0.21-0.75-0.3l0.02-0.51c0.01-0.15-0.05-0.3-0.2-0.34
		l-0.43-0.11c-0.15-0.04-0.27,0.06-0.34,0.2L50.71,61c-0.27-0.05-0.54-0.08-0.81-0.1l-0.05-0.22l-0.06-0.27
		c-0.03-0.15-0.13-0.28-0.28-0.28h-0.45c-0.15,0-0.25,0.13-0.28,0.28l-0.11,0.5c-0.27,0.02-0.54,0.05-0.8,0.1l-0.23-0.45
		c-0.07-0.14-0.19-0.24-0.34-0.2l-0.43,0.11c-0.15,0.04-0.21,0.19-0.2,0.34l0.02,0.51c-0.26,0.09-0.51,0.19-0.75,0.3l-0.33-0.38
		c-0.1-0.12-0.24-0.18-0.38-0.11l-0.39,0.21c-0.13,0.07-0.15,0.23-0.11,0.38l0.15,0.49c-0.22,0.15-0.44,0.3-0.65,0.47l-0.42-0.29
		c-0.13-0.09-0.28-0.12-0.39-0.01l-0.33,0.31c-0.11,0.1-0.09,0.26-0.01,0.39l0.26,0.44c-0.18,0.2-0.35,0.4-0.51,0.62l-0.48-0.17
		c-0.14-0.05-0.3-0.04-0.38,0.09l-0.24,0.38c-0.08,0.13-0.02,0.28,0.09,0.39l0.36,0.36c-0.13,0.24-0.24,0.48-0.34,0.73l-0.5-0.05
		c-0.15-0.02-0.3,0.03-0.35,0.18l-0.14,0.42c-0.05,0.15,0.05,0.27,0.18,0.35l0.44,0.26c-0.06,0.26-0.11,0.52-0.15,0.79l-0.5,0.08
		c-0.15,0.02-0.29,0.11-0.3,0.26l-0.03,0.45c-0.01,0.15,0.11,0.25,0.26,0.3l0.49,0.14c0,0.27,0.02,0.54,0.05,0.8l-0.47,0.2
		c-0.14,0.06-0.25,0.18-0.22,0.33l0.08,0.44c0.03,0.15,0.17,0.22,0.33,0.22l0.51,0.01c0.07,0.26,0.15,0.52,0.25,0.77l-0.4,0.31
		c-0.12,0.09-0.2,0.23-0.13,0.37l0.19,0.4c0.07,0.14,0.22,0.17,0.37,0.13l0.5-0.11c0.13,0.23,0.28,0.46,0.43,0.68L42.4,74
		c-0.09,0.12-0.14,0.27-0.04,0.39l0.28,0.34c0.1,0.12,0.26,0.11,0.39,0.04l0.45-0.23c0.19,0.19,0.38,0.38,0.59,0.55l-0.2,0.47
		c-0.06,0.14-0.06,0.3,0.06,0.39l0.36,0.26c0.12,0.09,0.28,0.04,0.39-0.06l0.38-0.34c0.23,0.14,0.46,0.27,0.7,0.39l-0.08,0.5
		c-0.02,0.15,0.01,0.31,0.16,0.36l0.41,0.16c0.14,0.06,0.28-0.03,0.36-0.16l0.28-0.42c0.25,0.08,0.51,0.15,0.78,0.2l0.04,0.5
		c0.01,0.15,0.09,0.29,0.24,0.31l0.44,0.06c0.15,0.02,0.26-0.1,0.31-0.24L48.9,77c0.13,0.01,0.26,0.01,0.4,0.01
		c0.14,0,0.27,0,0.41-0.01l0.17,0.48c0.05,0.15,0.16,0.26,0.31,0.24l0.44-0.06c0.15-0.02,0.23-0.16,0.24-0.31l0.05-0.51
		c0.26-0.05,0.52-0.12,0.78-0.2l0.28,0.42c0.09,0.13,0.22,0.21,0.36,0.16l0.41-0.16c0.14-0.06,0.18-0.21,0.16-0.36l-0.08-0.5
		c0.24-0.12,0.48-0.25,0.7-0.39l0.38,0.34c0.11,0.1,0.27,0.15,0.39,0.06l0.36-0.26c0.12-0.09,0.12-0.25,0.06-0.39l-0.2-0.47
		c0.2-0.17,0.4-0.36,0.59-0.55l0.45,0.23c0.14,0.07,0.3,0.08,0.39-0.04l0.28-0.34c0.1-0.12,0.06-0.27-0.04-0.39l-0.31-0.4
		c0.15-0.22,0.3-0.45,0.43-0.68l0.49,0.11c0.15,0.03,0.31,0.01,0.37-0.13l0.19-0.4c0.07-0.14-0.01-0.28-0.13-0.37l-0.4-0.31
		c0.09-0.25,0.18-0.51,0.25-0.77l0.51-0.01c0.15,0,0.3-0.07,0.33-0.22L58,70.38c0.03-0.15-0.08-0.27-0.22-0.33l-0.47-0.2
		c0.03-0.26,0.05-0.53,0.05-0.8l0.49-0.14c0.15-0.04,0.27-0.14,0.26-0.3l-0.03-0.45c-0.01-0.15-0.14-0.24-0.3-0.26l-0.5-0.08
		c-0.04-0.27-0.09-0.53-0.15-0.79l0.44-0.26c0.13-0.08,0.23-0.21,0.18-0.35l-0.05-0.16l-0.08-0.26
		C57.57,65.86,57.41,65.82,57.26,65.83z M53.42,68.82c0,2.41-1.96,4.37-4.37,4.37c-2.41,0-4.37-1.96-4.37-4.37
		c0-2.41,1.96-4.37,4.37-4.37C51.47,64.45,53.42,66.4,53.42,68.82z"/>
	<circle class="st6" cx="49.05" cy="68.81" r="4.37"/>
	<circle class="st17" cx="33.18" cy="54.77" r="0.74"/>
	<path class="st18" d="M82.11,35.08h0.67c0.36,0,0.65-0.29,0.65-0.65v0c0-0.36-0.29-0.65-0.65-0.65h-0.43h-0.24V30.1v-0.82v-1.29
		v-0.38c0-0.62-1.01-0.99-1.54-0.89v1.15c0.32-0.04,0.54,0.11,0.54,0.23c0,0.4,0,0.79,0,1.18c0,0.28,0,0.55,0,0.82
		c0,1.24,0,2.42,0,3.68H80.6c-0.03,0-0.06,0-0.08,0.01c-0.32,0.04-0.57,0.31-0.57,0.64v0c0,0.36,0.29,0.65,0.65,0.65h0.51
		L82.11,35.08L82.11,35.08z"/>
	<g>
		<circle class="st19" cx="53.25" cy="53" r="53"/>
	</g>
</g>
</svg>
