<?xml version="1.0" encoding="utf-8"?>
<!-- Generator: Adobe Illustrator 21.1.0, SVG Export Plug-In . SVG Version: 6.00 Build 0)  -->
<svg version="1.1" id="Layer_1" xmlns="http://www.w3.org/2000/svg" xmlns:xlink="http://www.w3.org/1999/xlink" x="0px" y="0px"
	 width="105.5px" height="105.5px" viewBox="0 0 105.5 105.5" style="enable-background:new 0 0 105.5 105.5;" xml:space="preserve"
	>
<style type="text/css">
	.st0{fill:#B1E9F1;}
	.st1{fill:#BBA9A3;}
	.st2{fill:#9F877E;}
	.st3{fill:#6C4C40;}
	.st4{fill:#FFFF00;}
	.st5{fill:#9C9C9C;}
	.st6{fill:#FFD500;}
	.st7{fill:#808080;}
	.st8{fill:#83BED6;}
	.st9{fill:#A4D8ED;}
	.st10{fill:#FFFFFF;}
	.st11{fill:#666666;}
	.st12{fill:#607C89;}
	.st13{fill:#445A64;}
	.st14{fill:#999999;}
	.st15{fill:#4D4D4D;}
	.st16{fill:#263238;}
	.st17{fill:#B3B3B3;}
	.st18{fill:#3E2622;}
	.st19{fill:none;}
	.st20{fill:#64D7F2;}
	.st21{fill:#324A5E;}
	.st22{fill:#FF7058;}
	.st23{fill:#E6E9EE;}
	.st24{fill:#FFEFC1;}
	.st25{fill:#FFF1C7;}
	.st26{fill:#FFDF81;}
	.st27{fill:#FFB54C;}
	.st28{fill:#FF9675;}
	.st29{fill:#FFC928;}
	.st30{fill:#FF9B7C;}
	.st31{fill:#FECBBC;}
	.st32{fill:#E9FFC2;}
	.st33{fill:#FDB62F;}
	.st34{fill:#6B962A;}
	.st35{fill:#88B337;}
	.st36{fill:#FFA83D;}
	.st37{fill:#FD7B2F;}
	.st38{fill:#DBDBDB;}
	.st39{fill:#F9F387;}
	.st40{fill:#736357;}
	.st41{fill:#534741;}
	.st42{fill:#E5D8C6;}
	.st43{fill:#D3C4B2;}
	.st44{fill:#EDE3D6;}
</style>
<g>
	<g>
		<circle class="st32" cx="52.75" cy="52.75" r="52.75"/>
	</g>
	<g>
		<circle class="st33" cx="69.22" cy="56.78" r="6.41"/>
		<rect x="51.83" y="31.16" class="st34" width="1.83" height="17.39"/>
		<path class="st35" d="M52.75,31.16h-1.83c-3.54,0-6.41-2.87-6.41-6.41h1.83C49.88,24.75,52.75,27.62,52.75,31.16z"/>
		<rect x="44.51" y="52.21" class="st36" width="12.81" height="3.66"/>
		<rect x="46.34" y="55.87" class="st33" width="12.81" height="3.66"/>
		<rect x="44.51" y="59.53" class="st36" width="12.81" height="3.66"/>
		<rect x="46.34" y="63.19" class="st33" width="12.81" height="3.66"/>
		<rect x="46.34" y="66.85" class="st36" width="12.81" height="3.66"/>
		<rect x="48.17" y="70.51" class="st33" width="12.81" height="3.66"/>
		<rect x="46.34" y="74.17" class="st36" width="12.81" height="3.66"/>
		<path class="st35" d="M41.77,33.9h1.83c5.05,0,9.15,4.1,9.15,9.15l0,0l0,0h-1.83C45.86,43.05,41.77,38.96,41.77,33.9L41.77,33.9
			L41.77,33.9z"/>
		<g>
			<path class="st34" d="M60.99,24.75h-1.83c-3.54,0-6.41,2.87-6.41,6.41h1.83C58.12,31.16,60.99,28.29,60.99,24.75z"/>
			<path class="st34" d="M54.58,43.05h-1.83l0,0l0,0c0-5.05,4.1-9.15,9.15-9.15h1.83l0,0l0,0C63.73,38.96,59.64,43.05,54.58,43.05z"
				/>
		</g>
		<rect x="28.04" y="59.53" class="st33" width="12.81" height="3.66"/>
		<rect x="28.04" y="63.19" class="st36" width="12.81" height="3.66"/>
		<rect x="29.87" y="66.85" class="st33" width="12.81" height="3.66"/>
		<rect x="28.04" y="70.51" class="st36" width="12.81" height="3.66"/>
		<g>
			<rect x="29.87" y="74.17" class="st33" width="12.81" height="3.66"/>
			<rect x="62.82" y="63.19" class="st33" width="12.81" height="3.66"/>
		</g>
		<rect x="64.65" y="66.85" class="st36" width="12.81" height="3.66"/>
		<rect x="64.65" y="70.51" class="st33" width="12.81" height="3.66"/>
		<g>
			<rect x="64.65" y="74.17" class="st36" width="12.81" height="3.66"/>
			<circle class="st36" cx="69.22" cy="56.78" r="3.66"/>
		</g>
		<g>
			<path class="st37" d="M69.22,60.44v-1.83c1.01,0,1.83-0.82,1.83-1.83h1.83C72.89,58.81,71.25,60.44,69.22,60.44z"/>
			<path class="st37" d="M67.39,56.78h-1.83c0-2.02,1.64-3.66,3.66-3.66v1.83C68.21,54.95,67.39,55.77,67.39,56.78z"/>
		</g>
		<g>
			<path class="st33" d="M71.06,33.9L71.06,33.9c-0.31-1.88-1.78-3.35-3.66-3.66l0,0c1.88-0.31,3.35-1.78,3.66-3.66l0,0
				c0.31,1.88,1.78,3.35,3.66,3.66l0,0C72.84,30.55,71.37,32.02,71.06,33.9z"/>
			<path class="st33" d="M34.44,54.04L34.44,54.04c-0.31-1.88-1.78-3.35-3.66-3.66l0,0c1.88-0.31,3.35-1.78,3.66-3.66l0,0
				c0.31,1.88,1.78,3.35,3.66,3.66l0,0C36.23,50.69,34.76,52.16,34.44,54.04z"/>
			<rect x="46.34" y="48.55" class="st33" width="12.81" height="3.66"/>
			<polygon class="st33" points="80.21,45.8 77.46,45.8 77.46,43.05 75.63,43.05 75.63,45.8 72.89,45.8 72.89,47.63 75.63,47.63 
				75.63,50.38 77.46,50.38 77.46,47.63 80.21,47.63 			"/>
		</g>
		<g>
			<rect x="25.29" y="76.92" class="st38" width="54.92" height="1.83"/>
			<path class="st38" d="M43.6,45.8c-3.03,0-5.49-2.46-5.49-5.49v-0.92h1.83v0.92c0,2.02,1.64,3.66,3.66,3.66V45.8z"/>
		</g>
	</g>
</g>
</svg>
