<?xml version="1.0" encoding="utf-8"?>
<!-- Generator: Adobe Illustrator 21.1.0, SVG Export Plug-In . SVG Version: 6.00 Build 0)  -->
<svg version="1.1" id="Layer_1" xmlns="http://www.w3.org/2000/svg" xmlns:xlink="http://www.w3.org/1999/xlink" x="0px" y="0px"
	 width="105.5px" height="106.75px" viewBox="0 0 105.5 106.75" style="enable-background:new 0 0 105.5 106.75;"
	 xml:space="preserve">
<style type="text/css">
	.st0{fill:#B1E9F1;}
	.st1{fill:#BBA9A3;}
	.st2{fill:#9F877E;}
	.st3{fill:#6C4C40;}
	.st4{fill:#FFFF00;}
	.st5{fill:#9C9C9C;}
	.st6{fill:#FFD500;}
	.st7{fill:#808080;}
	.st8{fill:#83BED6;}
	.st9{fill:#A4D8ED;}
	.st10{fill:#FFFFFF;}
	.st11{fill:#666666;}
	.st12{fill:#607C89;}
	.st13{fill:#445A64;}
	.st14{fill:#999999;}
	.st15{fill:#4D4D4D;}
	.st16{fill:#263238;}
	.st17{fill:#B3B3B3;}
	.st18{fill:#3E2622;}
	.st19{fill:none;}
	.st20{fill:#64D7F2;}
	.st21{fill:#324A5E;}
	.st22{fill:#FF7058;}
	.st23{fill:#E6E9EE;}
	.st24{fill:#FFEFC1;}
	.st25{fill:#FFF1C7;}
	.st26{fill:#FFDF81;}
	.st27{fill:#FFB54C;}
	.st28{fill:#FF9675;}
	.st29{fill:#FFC928;}
	.st30{fill:#FF9B7C;}
	.st31{fill:#FECBBC;}
	.st32{fill:#E9FFC2;}
	.st33{fill:#FDB62F;}
	.st34{fill:#6B962A;}
	.st35{fill:#88B337;}
	.st36{fill:#FFA83D;}
	.st37{fill:#FD7B2F;}
	.st38{fill:#DBDBDB;}
	.st39{fill:#F9F387;}
	.st40{fill:#736357;}
	.st41{fill:#534741;}
	.st42{fill:#E5D8C6;}
	.st43{fill:#D3C4B2;}
	.st44{fill:#EDE3D6;}
</style>
<g>
	<g>
		<circle class="st24" cx="52.75" cy="52.75" r="52.75"/>
	</g>
	<path class="st25" d="M15.25,53.9v0.93c0.01,2.35,0.18,2.87,0.51,4.27l0.02,0c2.83,16.56,16.51,29.41,33.47,30.96l0.14,0.01
		c0.22,0.02,0.45,0.04,0.67,0.05l0.3,0.02c0.19,0.01,0.38,0.02,0.58,0.03c0.12,0.01,0.25,0.01,0.37,0.01c0.17,0,0.34,0.01,0.52,0.02
		c0.2,0,0.4,0,0.6,0.01c0.1,0,0.2,0,0.29,0h0.04c0.28,0,0.56-0.01,0.84-0.01l0.13,0c0.27-0.01,0.53-0.02,0.79-0.03l0.22-0.01
		c0.23-0.01,0.47-0.03,0.7-0.04l0.33-0.03c0.15-0.01,0.3-0.03,0.45-0.04c16.81-1.57,30.39-14.23,33.35-30.6
		c0.36-1.4,0.36-1.84,0.55-4.07l0,0h0.04l0,0l0,0c0.01-0.14,0.01-0.28,0.01-0.42v-0.01v-0.01v-0.01v-0.02V54.9v-0.01l0,0v-0.01
		v-0.01v-0.03v-0.01v-0.01v-0.01V54.8h0v-0.01v-0.01v-0.01v-0.01v-0.01v-0.01v-0.01c0.24-2.79-0.13-7.38-1.08-10.94l-0.05-0.19
		c-4.08-16.27-18.8-28.32-36.34-28.32c-17.96,0-32.97,12.64-36.62,29.52l0,0c0,0.01-0.01,0.03-0.01,0.04l-0.06,0.23l-0.04,0.14
		l-0.07,0.25c-0.46,1.91-0.61,4.19-0.65,6.19c-0.01,0.37-0.02,0.74-0.02,1.11v0.07C15.25,53.2,15.25,53.56,15.25,53.9z"/>
	<path class="st26" d="M2.21,54.62c0,0,7.49-7.44,12.87-8.17s16.14,6.97,20.64,7.39c4.5,0.42,17.35-13.11,22.4-10.82
		c5.05,2.29,16.69,8.85,23.17,9.99c6.48,1.14,16.25-11.45,20.86-12.91c0.58-0.18,1.15-0.34,1.71-0.46
		c1.07,4.19,1.64,8.58,1.64,13.11c0,1.69-0.08,3.37-0.24,5.02c-22.37,4.26-77.03,12.34-88.87,7.52C4.41,60.41,2.21,54.62,2.21,54.62
		z"/>
	<path class="st27" d="M0.06,55.32c2.98-2.27,10.37-4.75,15.42-1.31c4.48,3.04,5.32,3.31,8.22,2.6c13.55-8.73,20.54-5.87,26.94,1.97
		c7.8,6.87,23.09,3.15,26.84,6.48c3.75,3.33-0.94,4.37-0.94,4.37L4.7,74.54C2.02,68.64,0.39,62.15,0.06,55.32z"/>
	<path class="st28" d="M105.48,51.4c-8.7,0.84-16.77-4.19-31.02,3.04c-14.83,7.53-33.2,16.78-30.28,16.24
		c2.87-0.54,38.67-2.79,59.37-3.66c1.27-4.54,1.95-9.32,1.95-14.27C105.5,52.3,105.49,51.85,105.48,51.4z"/>
	<path class="st26" d="M1.83,66.57h101.83C97.59,89,77.1,105.5,52.75,105.5C28.4,105.5,7.91,89,1.83,66.57z"/>
	<path class="st15" d="M91.24,88.82L59.73,70.63l-1.83-1.05l-5.2-3l-6.76,3.9l-2.24,1.29L14.23,88.78
		c9.63,10.28,23.82,17.97,39.02,17.97C68.43,106.75,81.61,99.09,91.24,88.82z"/>
	<g>
		<path class="st10" d="M86.39,93.38L52.7,66.57l35.7,25.05C87.75,92.23,87.08,92.81,86.39,93.38z M19.28,93.52
			c-0.76-0.62-1.5-1.27-2.22-1.93l35.23-24.74l0.41-0.28L19.28,93.52z"/>
		<path class="st29" d="M49.41,101.03l1.35-14.16h3.69l1.21,14.16H49.41z M51.1,83.34l0.68-7.1h1.76l0.61,7.1H51.1z M51.92,74.78
			l0.31-3.26h0.9l0.28,3.26L51.92,74.78L51.92,74.78z M52.3,70.8l0.2-2.1h0.39l0.18,2.1H52.3z M52.54,68.26l0.16-1.69l0.14,1.69
			H52.54z"/>
	</g>
	<path class="st30" d="M52.52,21.67c5.39,0,9.76,4.37,9.76,9.76c0,5.39-4.37,9.76-9.76,9.76c-5.39,0-9.76-4.37-9.76-9.76
		C42.76,26.04,47.13,21.67,52.52,21.67z"/>
	<g>
		<path class="st31" d="M31.3,28.47c0.98,0,1.9,0.19,2.72,0.53c0.89-0.71,2.1-1.16,3.44-1.16c2.32,0,4.26,1.32,4.78,3.1
			c1.16,0.29,2.09,1.01,2.51,1.94c0.14-0.01,0.28-0.02,0.42-0.02c2.14,0,3.88,1.43,3.88,3.2c0,1.77-1.74,3.2-3.88,3.2
			c-0.67,0-1.3-0.14-1.84-0.38c-0.47,1.33-1.96,2.3-3.72,2.3c-1.08,0-2.05-0.36-2.76-0.95c-0.7,0.59-1.68,0.95-2.76,0.95
			c-1.02,0-1.95-0.33-2.65-0.86c-0.71,0.64-1.73,1.04-2.86,1.04c-1.06,0-2.02-0.35-2.72-0.92c-0.32,0.06-0.65,0.09-0.99,0.09
			c-2.55,0-4.62-1.71-4.62-3.81c0-2.11,2.07-3.81,4.62-3.81c0.14,0,0.28,0.01,0.41,0.02C25.61,30.42,28.18,28.47,31.3,28.47z"/>
		<path class="st31" d="M79.93,38.81c0.37,0,0.73,0.07,1.04,0.2c0.34-0.27,0.8-0.44,1.31-0.44c0.89,0,1.63,0.51,1.83,1.19
			c0.44,0.11,0.8,0.38,0.96,0.74c0.05,0,0.11-0.01,0.16-0.01c0.82,0,1.48,0.55,1.48,1.22s-0.66,1.22-1.48,1.22
			c-0.26,0-0.5-0.05-0.7-0.15c-0.18,0.51-0.75,0.88-1.42,0.88c-0.41,0-0.78-0.14-1.05-0.36c-0.27,0.22-0.64,0.36-1.05,0.36
			c-0.39,0-0.75-0.12-1.01-0.33c-0.27,0.25-0.66,0.4-1.09,0.4c-0.41,0-0.77-0.13-1.04-0.35c-0.12,0.02-0.25,0.03-0.38,0.03
			c-0.97,0-1.77-0.65-1.77-1.46c0-0.81,0.79-1.46,1.77-1.46c0.05,0,0.11,0,0.16,0.01C77.76,39.56,78.74,38.81,79.93,38.81z"/>
		<path class="st31" d="M61.24,8.4c0.6,0,1.17,0.12,1.68,0.33c0.55-0.44,1.29-0.71,2.12-0.71c1.43,0,2.62,0.82,2.94,1.91
			c0.71,0.18,1.29,0.62,1.55,1.19c0.08-0.01,0.17-0.01,0.26-0.01c1.32,0,2.39,0.88,2.39,1.97s-1.07,1.97-2.39,1.97
			c-0.41,0-0.8-0.08-1.14-0.24c-0.29,0.82-1.21,1.42-2.29,1.42c-0.66,0-1.26-0.22-1.7-0.58c-0.43,0.36-1.03,0.58-1.7,0.58
			c-0.63,0-1.21-0.2-1.63-0.53c-0.44,0.39-1.06,0.64-1.76,0.64c-0.65,0-1.25-0.22-1.68-0.57c-0.2,0.04-0.4,0.05-0.61,0.05
			c-1.57,0-2.85-1.05-2.85-2.35c0-1.3,1.27-2.35,2.85-2.35c0.08,0,0.17,0,0.25,0.01C57.74,9.6,59.32,8.4,61.24,8.4z"/>
		<path class="st31" d="M92.17,19.16c0.48,0,0.94,0.05,1.37,0.15c2.68,3.27,4.98,6.87,6.83,10.73c-0.32,0.08-0.66,0.13-1.01,0.13
			c-0.93,0-1.78-0.31-2.39-0.82c-0.61,0.51-1.45,0.82-2.39,0.82c-0.89,0-1.69-0.29-2.29-0.75c-0.61,0.55-1.5,0.9-2.48,0.9
			c-0.92,0-1.75-0.3-2.36-0.8c-0.28,0.05-0.57,0.08-0.86,0.08c-2.21,0-4-1.48-4-3.3c0-1.82,1.79-3.3,4-3.3
			c0.12,0,0.24,0.01,0.36,0.01C87.25,20.84,89.47,19.16,92.17,19.16z"/>
	</g>
</g>
</svg>
