<?xml version="1.0" encoding="utf-8"?>
<!-- Generator: Adobe Illustrator 21.1.0, SVG Export Plug-In . SVG Version: 6.00 Build 0)  -->
<svg version="1.1" id="Layer_1" xmlns="http://www.w3.org/2000/svg" xmlns:xlink="http://www.w3.org/1999/xlink" x="0px" y="0px"
	 width="15.49px" height="17.14px" viewBox="0 0 15.49 17.14" style="enable-background:new 0 0 15.49 17.14;" xml:space="preserve"
	>
<path d="M14.91,16.56c-0.77,0.77-2.03,0.77-2.8,0l-4.37-4.99l-4.37,4.99c-0.77,0.77-2.03,0.77-2.8,0c-0.77-0.77-0.77-2.03,0-2.8
	l4.55-5.19l-4.55-5.2c-0.77-0.77-0.77-2.02,0-2.8s2.02-0.77,2.8,0l4.37,5l4.37-5c0.77-0.77,2.02-0.77,2.8,0
	c0.77,0.77,0.77,2.03,0,2.8l-4.55,5.2l4.55,5.19C15.69,14.54,15.69,15.79,14.91,16.56z"/>
</svg>
