<?xml version="1.0" encoding="utf-8"?>
<!-- Generator: Adobe Illustrator 16.0.0, SVG Export Plug-In . SVG Version: 6.00 Build 0)  -->
<!DOCTYPE svg PUBLIC "-//W3C//DTD SVG 1.1//EN" "http://www.w3.org/Graphics/SVG/1.1/DTD/svg11.dtd">
<svg version="1.1" id="Layer_1" xmlns="http://www.w3.org/2000/svg" xmlns:xlink="http://www.w3.org/1999/xlink" x="0px" y="0px"
	 width="72px" height="72px" viewBox="28.718 -272.067 72 72" enable-background="new 28.718 -272.067 72 72" xml:space="preserve">
<path id="facebook-circle-icon_2_" fill="#FFFFFF" d="M64.718-272.067c-19.883,0-36,16.117-36,36s16.117,36,36,36
	c19.882,0,36-16.117,36-36S84.6-272.067,64.718-272.067z M75.373-250.889c0,0-3.602,0-5.031,0c-1.776,0-2.146,0.728-2.146,2.565
	c0,1.529,0,4.439,0,4.439h7.178l-0.691,7.794h-6.486v23.282h-9.297v-23.184h-4.835v-7.893h4.835c0,0,0-1.135,0-6.215
	c0-5.833,3.119-8.879,10.037-8.879c1.133,0,6.438,0,6.438,0V-250.889L75.373-250.889z"/>
</svg>
