<?xml version="1.0" encoding="utf-8"?>
<!-- Generator: Adobe Illustrator 21.1.0, SVG Export Plug-In . SVG Version: 6.00 Build 0)  -->
<svg version="1.1" xmlns="http://www.w3.org/2000/svg" xmlns:xlink="http://www.w3.org/1999/xlink" x="0px" y="0px" width="10.18px"
	 height="9.54px" viewBox="0 0 10.18 9.54" style="enable-background:new 0 0 10.18 9.54;" xml:space="preserve">
<style type="text/css">
	.st0{fill:#FFFFFF;}
	.st1{fill:url(#SVGID_1_);}
	.st2{opacity:0.25;fill:#FFFFFF;}
	.st3{opacity:0.72;}
	.st4{opacity:0.77;fill:url(#SVGID_10_);}
	.st5{fill:#0C1C02;}
	.st6{fill:#6FB845;}
	.st7{opacity:0.63;}
	.st8{opacity:0.47;}
	.st9{fill:none;stroke:#E4E4E4;stroke-width:3;stroke-miterlimit:10;}
	.st10{fill:#D32A2B;}
	.st11{fill:#0D8C49;}
	.st12{fill:#F6E116;}
	.st13{fill:#E9753A;}
	.st14{fill:#1C8B4D;}
	.st15{fill:#C95634;}
	.st16{fill:none;stroke:#202020;stroke-miterlimit:10;}
	.st17{fill:#202020;}
	.st18{fill:none;stroke:#E4E4E4;stroke-miterlimit:10;}
	.st19{fill:none;stroke:#FFFFFF;stroke-miterlimit:10;}
	.st20{fill:#0C0C0C;}
	.st21{fill:#6FE4F7;stroke:#6FB845;stroke-width:4;stroke-miterlimit:10;}
	.st22{fill:#29ABE2;}
	.st23{fill:#FBB03B;}
	.st24{fill:#344C25;}
	.st25{fill:#ADE21A;stroke:#FFFFFF;stroke-width:6;stroke-miterlimit:10;}
	.st26{fill:#CCCCCC;}
	.st27{fill:#B3B3B3;}
	.st28{fill:#686868;}
	.st29{fill:#4F4F4F;}
	.st30{fill:#FFCC5A;}
	.st31{fill:#FFA227;}
	.st32{fill:#FFB000;}
	.st33{fill:#AEFFFF;}
	.st34{fill:#84F1F7;}
	.st35{fill:#E4E4E4;}
	.st36{fill:none;stroke:#6FB845;stroke-width:4;stroke-miterlimit:10;}
	.st37{fill:#64D7F2;}
	.st38{fill:#324A5E;}
	.st39{fill:#FF7058;}
	.st40{fill:#E6E9EE;}
	.st41{fill:#FFEFC1;}
	.st42{fill:#FFF1C7;}
	.st43{fill:#FFDF81;}
	.st44{fill:#FFB54C;}
	.st45{fill:#FF9675;}
	.st46{fill:#4D4D4D;}
	.st47{fill:#FFC928;}
	.st48{fill:#FF9B7C;}
	.st49{fill:#FECBBC;}
	.st50{fill:#E9FFC2;}
	.st51{fill:#FDB62F;}
	.st52{fill:#6B962A;}
	.st53{fill:#88B337;}
	.st54{fill:#FFA83D;}
	.st55{fill:#FD7B2F;}
	.st56{fill:#DBDBDB;}
	.st57{fill:#F9F387;}
	.st58{fill:#736357;}
	.st59{fill:#534741;}
	.st60{fill:#E5D8C6;}
	.st61{fill:#D3C4B2;}
	.st62{fill:#EDE3D6;}
	.st63{fill:none;stroke:#6FB845;stroke-miterlimit:10;}
	.st64{fill:#B1E9F1;}
	.st65{fill:#BBA9A3;}
	.st66{fill:#9F877E;}
	.st67{fill:#6C4C40;}
	.st68{fill:#FFFF00;}
	.st69{fill:#9C9C9C;}
	.st70{fill:#FFD500;}
	.st71{fill:#808080;}
	.st72{fill:#83BED6;}
	.st73{fill:#A4D8ED;}
	.st74{fill:#666666;}
	.st75{fill:#607C89;}
	.st76{fill:#445A64;}
	.st77{fill:#999999;}
	.st78{fill:#263238;}
	.st79{fill:#3E2622;}
	.st80{fill:#FFFFFF;stroke:#FFFFFF;stroke-width:0.5;stroke-miterlimit:10;}
	.st81{fill:none;stroke:#2E7F13;stroke-width:2;stroke-miterlimit:10;}
	.st82{fill:none;stroke:#EF5A24;stroke-miterlimit:10;}
	.st83{display:none;}
	.st84{display:inline;}
</style>
<g id="bg">
</g>
<g id="bg2">
</g>
<g id="bg-front1">
</g>
<g id="bg-front-2">
</g>
<g id="Layer_1">
	<g>
		<g>
			<path class="st0" d="M4.11,4.77l-3.76-3.9c-0.14-0.14-0.14-0.37,0-0.51c0.14-0.14,0.37-0.14,0.51,0l4.12,4.16
				c0.14,0.14,0.14,0.37,0,0.51L0.87,9.18c-0.14,0.14-0.37,0.14-0.51,0c-0.14-0.14-0.14-0.37,0-0.51L4.11,4.77z"/>
			<path class="st0" d="M0.61,9.54c-0.16,0-0.32-0.06-0.43-0.18c-0.24-0.24-0.24-0.63,0-0.87l3.59-3.73L0.18,1.04
				c-0.23-0.24-0.23-0.63,0-0.86c0.23-0.23,0.63-0.23,0.87,0l4.12,4.16c0.24,0.24,0.24,0.63,0,0.87L1.04,9.36
				C0.93,9.48,0.77,9.54,0.61,9.54z M0.61,0.49c-0.02,0-0.05,0-0.08,0.03c-0.04,0.04-0.04,0.12,0,0.16l3.93,4.08L0.54,8.84
				c-0.05,0.05-0.05,0.12,0,0.16c0.06,0.06,0.1,0.06,0.16,0l4.12-4.16c0.04-0.04,0.04-0.12,0-0.16L0.69,0.53
				C0.66,0.5,0.63,0.49,0.61,0.49z"/>
		</g>
		<g>
			<path class="st0" d="M8.95,4.77L5.2,0.87c-0.14-0.14-0.14-0.37,0-0.51c0.14-0.14,0.37-0.14,0.51,0l4.12,4.16
				c0.14,0.14,0.14,0.37,0,0.51L5.7,9.18c-0.14,0.14-0.37,0.14-0.51,0c-0.14-0.14-0.14-0.37,0-0.51L8.95,4.77z"/>
			<path class="st0" d="M5.45,9.54c-0.16,0-0.32-0.06-0.43-0.18c-0.24-0.24-0.24-0.63,0-0.87L8.6,4.77L5.01,1.04
				c-0.23-0.24-0.23-0.63,0-0.86c0.23-0.23,0.63-0.23,0.87,0L10,4.33c0.24,0.24,0.24,0.63,0,0.87L5.88,9.36
				C5.77,9.48,5.61,9.54,5.45,9.54z M5.45,0.49c-0.02,0-0.05,0-0.08,0.03c-0.04,0.04-0.04,0.12,0,0.16L9.3,4.77L5.38,8.84
				c-0.05,0.05-0.05,0.12,0,0.16c0.06,0.06,0.1,0.06,0.16,0l4.12-4.16c0.04-0.04,0.04-0.12,0-0.16L5.53,0.53
				C5.5,0.5,5.47,0.49,5.45,0.49z"/>
		</g>
	</g>
</g>
<g id="header">
</g>
<g id="marge">
</g>
<g id="Layer_8" class="st83">
</g>
</svg>
